<svg width="41" height="46" viewBox="0 0 41 46" fill="none" xmlns="http://www.w3.org/2000/svg">
<path d="M31.2233 39.7101L29.1817 34.3143H11.7233L9.66083 39.8143C8.85354 41.9705 8.16604 43.4184 7.59833 44.1684C7.04104 44.9184 6.11916 45.2934 4.8275 45.2934C3.72854 45.2934 2.75458 44.8976 1.91083 44.1059C1.0775 43.3039 0.660831 42.3924 0.660831 41.3768C0.660831 40.7934 0.754582 40.1893 0.952498 39.5643C1.14521 38.9393 1.47333 38.0643 1.93166 36.9393L12.9108 9.06427C13.2285 8.26218 13.6035 7.29343 14.0358 6.16843C14.4785 5.04343 14.9525 4.11635 15.4525 3.37677C15.9525 2.62677 16.6035 2.0226 17.4108 1.56427C18.2129 1.10593 19.2129 0.876767 20.4108 0.876767C21.6192 0.876767 22.6244 1.10593 23.4317 1.56427C24.2494 2.0226 24.9108 2.61635 25.4108 3.3351C25.9108 4.05906 26.3275 4.8351 26.6608 5.66843C27.0046 6.50177 27.4421 7.61635 27.9733 9.00177L39.2025 36.7101C40.0775 38.8247 40.515 40.3559 40.515 41.3143C40.515 42.3143 40.0983 43.2309 39.265 44.0643C38.4317 44.882 37.4317 45.2934 36.265 45.2934C35.5827 45.2934 34.9942 45.1684 34.4942 44.9184C34.0046 44.6789 33.5983 44.3559 33.265 43.9393C32.9421 43.5226 32.5879 42.8768 32.2025 42.0018C31.8275 41.1268 31.4994 40.3664 31.2233 39.7101ZM13.9942 27.7726H26.8275L20.3483 10.0434L13.9942 27.7726Z" fill="#00CCCC"/>
</svg>
