<svg width="41" height="46" viewBox="0 0 41 46" fill="none" xmlns="http://www.w3.org/2000/svg">
<path d="M31.1667 39.7968L29.125 34.4009H11.6667L9.60416 39.9009C8.79687 42.0572 8.10937 43.5051 7.54166 44.2551C6.98437 45.0051 6.06249 45.3801 4.77083 45.3801C3.67187 45.3801 2.69791 44.9843 1.85416 44.1926C1.02083 43.3905 0.60416 42.4791 0.60416 41.4634C0.60416 40.8801 0.697911 40.2759 0.895827 39.6509C1.08853 39.0259 1.41666 38.1509 1.87499 37.0259L12.8542 9.15092C13.1719 8.34884 13.5469 7.38009 13.9792 6.25509C14.4219 5.13009 14.8958 4.20301 15.3958 3.46342C15.8958 2.71342 16.5469 2.10926 17.3542 1.65092C18.1562 1.19259 19.1562 0.963425 20.3542 0.963425C21.5625 0.963425 22.5677 1.19259 23.375 1.65092C24.1927 2.10926 24.8542 2.70301 25.3542 3.42176C25.8542 4.14572 26.2708 4.92176 26.6042 5.75509C26.9479 6.58842 27.3854 7.70301 27.9167 9.08842L39.1458 36.7968C40.0208 38.9113 40.4583 40.4426 40.4583 41.4009C40.4583 42.4009 40.0417 43.3176 39.2083 44.1509C38.375 44.9686 37.375 45.3801 36.2083 45.3801C35.526 45.3801 34.9375 45.2551 34.4375 45.0051C33.9479 44.7655 33.5417 44.4426 33.2083 44.0259C32.8854 43.6093 32.5312 42.9634 32.1458 42.0884C31.7708 41.2134 31.4427 40.453 31.1667 39.7968ZM13.9375 27.8593H26.7708L20.2917 10.1301L13.9375 27.8593Z" fill="#B3B3B3"/>
</svg>
