<svg id="Layer_1" data-name="Layer 1" xmlns="http://www.w3.org/2000/svg" viewBox="149 0 47 50">
  <defs>
    <style>.cls-1{font-size:45px;font-family:ArialRoundedMTBold, Arial Rounded MT Bold;}.cls-1,.cls-6{fill:#b3b3b3;}.cls-2,.cls-4,.cls-7{fill:none;}.cls-2,.cls-3{stroke:#ddd;stroke-linecap:round;stroke-width:8px;}.cls-2{stroke-miterlimit:26;}.cls-3{fill:#fff;}.cls-3,.cls-4,.cls-5,.cls-7{stroke-miterlimit:10;}.cls-4{stroke:#afafaf;stroke-width:0.75px;}.cls-5{fill:#ccc;stroke:#ccc;stroke-width:0.11px;}.cls-7{stroke:#b3b3b3;stroke-width:0.83px;}</style>
  </defs>
  <!--<text class="cls-1" transform="translate(0 54.49)">A</text>-->
  <!--<path class="cls-2" d="M14.37,85.88H253.49"/>
  <path class="cls-3" d="M14.37,70.71V85.88"/>
  <path class="cls-3" d="M94.37,70.71V85.88"/>
  <path class="cls-3" d="M174.37,70.71V85.88"/>
  <path class="cls-3" d="M254.37,70.71V85.88"/>-->
  <path class="cls-4" d="M170.23,45.49c.53-.45,10.35-9.22,10.35-9.22l-25.84-4.88"/>
  <path class="cls-4" d="M171.18,26.68l9.4,9.59s9.07-1.34,9.57-1.64"/>
  <line class="cls-4" x1="174.89" y1="5.75" x2="180.58" y2="36.27"/>
  <path class="cls-5" d="M182.59,31.31a.24.24,0,0,1,.16.27"/>
  <circle class="cls-6" cx="154.74" cy="31.38" r="3.97"/>
  <circle class="cls-6" cx="170.12" cy="25.56" r="3.97"/>
  <circle class="cls-6" cx="170.12" cy="45.31" r="3.97"/>
  <circle class="cls-6" cx="189.99" cy="34.37" r="3.97"/>
  <circle class="cls-6" cx="175.29" cy="4.98" r="3.97"/>
  <!--<path class="cls-6" d="M255.56,49.12a3.93,3.93,0,0,1-2.78-6.7L261.26,34a.88.88,0,0,0,0-1.23.89.89,0,0,0-1.23,0l-8.45,8.44a3.91,3.91,0,0,1-5.54,0,3.93,3.93,0,0,1,0-5.55l8.47-8.41a.88.88,0,0,0,0-1.24.89.89,0,0,0-1.24,0l-8.44,8.45a3.93,3.93,0,0,1-6.7-2.78,3.89,3.89,0,0,1,1.15-2.77l8.47-8.42a.88.88,0,0,0,0-1.23.88.88,0,0,0-1.24,0L236.31,29.45a1.52,1.52,0,0,1-2.15-2.16L244.35,17.1a3.92,3.92,0,0,1,5.54,0,3.92,3.92,0,0,1,0,5.55l-8.47,8.42a.87.87,0,0,0,1.24,1.23l8.44-8.44a3.92,3.92,0,1,1,5.55,5.55l-8.47,8.41a.88.88,0,0,0,0,1.24.9.9,0,0,0,1.24,0l8.44-8.44a3.92,3.92,0,0,1,5.55,0,3.92,3.92,0,0,1,0,5.54l-8.48,8.42a.88.88,0,0,0,0,1.23.9.9,0,0,0,1.24,0l10.13-10.13a1.52,1.52,0,0,1,2.16,2.15L258.33,48A3.89,3.89,0,0,1,255.56,49.12Z"/>
  <path class="cls-7" d="M88.83,11.45s17.53,31.21,17,30.83-24.71-8.42-24.71-8.42Z"/>
  <circle class="cls-6" cx="89.6" cy="11.05" r="8.49"/>
  <circle class="cls-6" cx="81.47" cy="33.19" r="6.06"/>
  <circle class="cls-6" cx="105.18" cy="41.29" r="10.14"/>-->
</svg>