<svg id="Layer_1" data-name="Layer 1" xmlns="http://www.w3.org/2000/svg" viewBox="0 0 389.3 389.3" height="297.33334" width="365.33334">
  <defs>
    <style>.cls-1{fill:#fff;stroke:#d0e9f0;stroke-width:20.8px;}.cls-1,.cls-2,.cls-3{stroke-miterlimit:10;}.cls-2,.cls-3{fill:none;}.cls-2{stroke:#8dd0db;stroke-width:20px;}.cls-3{stroke:#fcacd7;stroke-width:18.95px;}.cls-4{fill:#0084a8;}</style>
  </defs>
  <title>BMA_Logo_APP</title>
  <circle class="cls-1" cx="194.65" cy="194.65" r="184.25"/>
  <circle class="cls-2" cx="194.65" cy="194.65" r="155.91"/>
  <circle class="cls-3" cx="194.65" cy="194.65" r="127.56"/>
  <path class="cls-4" d="M115.28,171.19h17.44a44.33,44.33,0,0,1,6.93.56,16.6,16.6,0,0,1,6.28,2.3,13.43,13.43,0,0,1,4.53,4.88,16.78,16.78,0,0,1,1.76,8.25,12.46,12.46,0,0,1-2.74,8,13.38,13.38,0,0,1-8.12,4.54v.17a16.09,16.09,0,0,1,5.47,1.41,13.5,13.5,0,0,1,4.27,3.08,13.3,13.3,0,0,1,2.78,4.57,16.52,16.52,0,0,1,1,5.81,16.12,16.12,0,0,1-2,8.51,15.25,15.25,0,0,1-5.05,5.17,19.31,19.31,0,0,1-6.58,2.57,34.78,34.78,0,0,1-6.63.68H115.28Zm5.64,26.16h11.72a19.6,19.6,0,0,0,7.09-1.07,12.34,12.34,0,0,0,4.28-2.6,7.83,7.83,0,0,0,2.05-3.3,12.07,12.07,0,0,0-.56-8.46,8.81,8.81,0,0,0-2.86-3.34,11.61,11.61,0,0,0-4.19-1.75,24.2,24.2,0,0,0-5-.51H120.92Zm0,29.24h12.91a22.19,22.19,0,0,0,8-1.19,12.28,12.28,0,0,0,4.66-3,9.38,9.38,0,0,0,2.18-3.8,13.75,13.75,0,0,0,.55-3.63,11.89,11.89,0,0,0-1.28-5.73,11.29,11.29,0,0,0-3.33-3.89,13.68,13.68,0,0,0-4.66-2.18,20.54,20.54,0,0,0-5.26-.69H120.92Z" transform="translate(-5.35 -5.64)"/>
  <path class="cls-4" d="M168.55,171.19H177L199.07,222l22.06-50.79h8v60.53h-5.65V178.37h-.17l-23.08,53.35h-2.48l-23.43-53.35h-.17v53.35h-5.64Z" transform="translate(-5.35 -5.64)"/>
  <path class="cls-4" d="M263.71,171.19h5.81L295,231.72h-6.33l-6.58-16.07H250l-6.84,16.07h-5.9Zm2.65,6.16-14.11,33.17H280Z" transform="translate(-5.35 -5.64)"/>
</svg>