<svg id="Layer_1" data-name="Layer 1" xmlns="http://www.w3.org/2000/svg" viewBox="0 0 399.79 399.59" width="450px" height="450px">
  <defs>
    <style>.cls-1{fill:#fff;stroke:#cfe7ef;stroke-width:21.35px;}.cls-1,.cls-2,.cls-3{stroke-miterlimit:10;}.cls-2,.cls-3{fill:none;}.cls-2{stroke:#8ecfd9;stroke-width:20.53px;}.cls-3{stroke:#f2accd;stroke-width:19.45px;}.cls-4{fill:#1c3661;}.cls-5{fill:#676767;}</style>
  </defs>
  <title>BMA_Logo_Homepage</title>
  <ellipse class="cls-1" cx="199.9" cy="199.79" rx="189.22" ry="189.12"/>
  <ellipse class="cls-2" cx="199.9" cy="199.79" rx="160.11" ry="160.02"/>
  <ellipse class="cls-3" cx="199.9" cy="199.79" rx="131" ry="130.93"/>
  <path class="cls-4" d="M110.09,145.71h18.85a47.84,47.84,0,0,1,7.49.6,17.79,17.79,0,0,1,6.79,2.49,14.41,14.41,0,0,1,4.9,5.27A18.18,18.18,0,0,1,150,163a13.51,13.51,0,0,1-3,8.69q-3,3.69-8.78,4.89v.19a17.27,17.27,0,0,1,5.91,1.52,14.77,14.77,0,0,1,4.63,3.33,14.58,14.58,0,0,1,3,4.94,17.88,17.88,0,0,1,1.06,6.28,17.39,17.39,0,0,1-2.17,9.19,16.68,16.68,0,0,1-5.45,5.59,20.77,20.77,0,0,1-7.12,2.77,38.19,38.19,0,0,1-7.16.74H110.09Zm6.1,28.26h12.66a21.41,21.41,0,0,0,7.67-1.15,13.2,13.2,0,0,0,4.62-2.82,8.38,8.38,0,0,0,2.22-3.55,13,13,0,0,0-.6-9.15,9.54,9.54,0,0,0-3.09-3.6,12.64,12.64,0,0,0-4.53-1.9,26.06,26.06,0,0,0-5.46-.55H116.19Zm0,31.6h14a23.81,23.81,0,0,0,8.64-1.3,13.22,13.22,0,0,0,5-3.23,10.14,10.14,0,0,0,2.36-4.11,14.92,14.92,0,0,0,.6-3.93,12.94,12.94,0,0,0-1.38-6.18,12.35,12.35,0,0,0-3.61-4.21,15,15,0,0,0-5-2.35,22,22,0,0,0-5.68-.74H116.19Z"/>
  <path class="cls-4" d="M167.67,145.71h9.15l23.85,54.87,23.84-54.87h8.69v65.4h-6.1V153.47h-.19L202,211.11h-2.68L174,153.47h-.19v57.64h-6.1Z"/>
  <path class="cls-4" d="M270.54,145.71h6.28l27.55,65.4h-6.84l-7.12-17.37H255.75l-7.39,17.37H242Zm2.86,6.65L258.15,188.2h30Z"/>
  <path class="cls-5" d="M138.64,229.18h5.94a14.62,14.62,0,0,1,2.36.19,5.44,5.44,0,0,1,2.14.78,4.57,4.57,0,0,1,1.54,1.66,5.69,5.69,0,0,1,.6,2.81,4.24,4.24,0,0,1-.93,2.73,4.56,4.56,0,0,1-2.77,1.54V239a5.54,5.54,0,0,1,1.86.48,4.54,4.54,0,0,1,1.46,1,4.74,4.74,0,0,1,.95,1.56,5.7,5.7,0,0,1,.33,2,5.56,5.56,0,0,1-.68,2.9,5.27,5.27,0,0,1-1.72,1.76,6.45,6.45,0,0,1-2.24.87,11.68,11.68,0,0,1-2.26.24h-6.58Zm1.92,8.9h4a6.82,6.82,0,0,0,2.42-.36,4.18,4.18,0,0,0,1.45-.89,2.57,2.57,0,0,0,.7-1.12,4,4,0,0,0-.19-2.88,2.93,2.93,0,0,0-1-1.14,3.82,3.82,0,0,0-1.43-.59,7.89,7.89,0,0,0-1.72-.18h-4.25Zm0,9.95H145a7.56,7.56,0,0,0,2.72-.41,4.12,4.12,0,0,0,1.59-1,3.14,3.14,0,0,0,.74-1.29,4.57,4.57,0,0,0,.19-1.24,4.13,4.13,0,0,0-.44-1.95,3.93,3.93,0,0,0-1.13-1.32,4.64,4.64,0,0,0-1.59-.74,6.82,6.82,0,0,0-1.79-.23h-4.69Z"/>
  <path class="cls-5" d="M156.34,231a1.32,1.32,0,0,1,2.24-.93,1.33,1.33,0,0,1,0,1.86,1.31,1.31,0,0,1-2.24-.93Zm.44,5.32h1.75v13.45h-1.75Z"/>
  <path class="cls-5" d="M162.72,243.05a7.46,7.46,0,0,1,.52-2.83A6.68,6.68,0,0,1,164.7,238a6.42,6.42,0,0,1,2.24-1.47,7.57,7.57,0,0,1,2.85-.53,7.48,7.48,0,0,1,2.84.53,6.59,6.59,0,0,1,3.71,3.71,8,8,0,0,1,0,5.67,6.59,6.59,0,0,1-3.71,3.71,7.48,7.48,0,0,1-2.84.52,7.57,7.57,0,0,1-2.85-.52,6.42,6.42,0,0,1-2.24-1.47,6.68,6.68,0,0,1-1.46-2.24A7.48,7.48,0,0,1,162.72,243.05Zm1.74,0a6.06,6.06,0,0,0,.37,2.14,5,5,0,0,0,1.06,1.75,5.24,5.24,0,0,0,1.69,1.18,5.89,5.89,0,0,0,4.42,0,5.14,5.14,0,0,0,1.69-1.18,5,5,0,0,0,1.06-1.75,6.34,6.34,0,0,0,0-4.27,4.87,4.87,0,0,0-1.06-1.75A5.14,5.14,0,0,0,172,238a5.89,5.89,0,0,0-4.42,0,5.24,5.24,0,0,0-1.69,1.18,4.87,4.87,0,0,0-1.06,1.75A6,6,0,0,0,164.46,243.05Z"/>
  <path class="cls-5" d="M188.62,229.18h2.89L199,246.46l7.51-17.28h2.73v20.6h-1.92V231.62h-.06l-7.86,18.16h-.84l-8-18.16h0v18.16h-1.93Z"/>
  <path class="cls-5" d="M213.46,243.05a7.46,7.46,0,0,1,.52-2.83,6.68,6.68,0,0,1,1.46-2.24,6.42,6.42,0,0,1,2.24-1.47,7.9,7.9,0,0,1,5.69,0,6.59,6.59,0,0,1,3.71,3.71,8,8,0,0,1,0,5.67,6.59,6.59,0,0,1-3.71,3.71,8,8,0,0,1-5.69,0,6.42,6.42,0,0,1-2.24-1.47,6.68,6.68,0,0,1-1.46-2.24A7.48,7.48,0,0,1,213.46,243.05Zm1.74,0a6.06,6.06,0,0,0,.37,2.14,5,5,0,0,0,1.06,1.75,5.24,5.24,0,0,0,1.69,1.18,5.89,5.89,0,0,0,4.42,0,5.24,5.24,0,0,0,1.69-1.18,5,5,0,0,0,1.06-1.75,6.34,6.34,0,0,0,0-4.27,4.87,4.87,0,0,0-1.06-1.75,5.24,5.24,0,0,0-1.69-1.18,5.89,5.89,0,0,0-4.42,0,5.24,5.24,0,0,0-1.69,1.18,4.87,4.87,0,0,0-1.06,1.75A6,6,0,0,0,215.2,243.05Z"/>
  <path class="cls-5" d="M243.26,247.42h0a4.76,4.76,0,0,1-1,1.21,6,6,0,0,1-1.33.84,6.28,6.28,0,0,1-1.5.49,7.39,7.39,0,0,1-1.54.16,7.57,7.57,0,0,1-2.85-.52,6.42,6.42,0,0,1-2.24-1.47,6.84,6.84,0,0,1-1.46-2.24,8,8,0,0,1,0-5.67,6.84,6.84,0,0,1,1.46-2.24,6.42,6.42,0,0,1,2.24-1.47,7.57,7.57,0,0,1,2.85-.53,8.14,8.14,0,0,1,1.54.16,6.78,6.78,0,0,1,1.5.5,6,6,0,0,1,1.33.84,4.76,4.76,0,0,1,1,1.21h0V227.78H245v22h-1.75Zm.18-4.37a5.31,5.31,0,0,0-.44-2.13,5.48,5.48,0,0,0-1.19-1.75A5.88,5.88,0,0,0,240,238a5.55,5.55,0,0,0-2.21-.43,5.45,5.45,0,0,0-2.21.43,5.24,5.24,0,0,0-1.69,1.18,4.87,4.87,0,0,0-1.06,1.75,6.34,6.34,0,0,0,0,4.27,5,5,0,0,0,1.06,1.75,5.24,5.24,0,0,0,1.69,1.18,5.45,5.45,0,0,0,2.21.43,5.55,5.55,0,0,0,2.21-.43,5.88,5.88,0,0,0,1.78-1.18,5.59,5.59,0,0,0,1.19-1.75A5.32,5.32,0,0,0,243.44,243.05Z"/>
  <path class="cls-5" d="M261.17,247.24a5.93,5.93,0,0,1-2.52,2.22,8.1,8.1,0,0,1-3.3.66,7.17,7.17,0,0,1-2.8-.52,6.35,6.35,0,0,1-3.54-3.71,8.17,8.17,0,0,1-.48-2.86,7.74,7.74,0,0,1,.5-2.8,6.55,6.55,0,0,1,1.4-2.22,6.48,6.48,0,0,1,4.83-2,6.47,6.47,0,0,1,2.72.54,5.93,5.93,0,0,1,2,1.43,6,6,0,0,1,1.21,2,6.79,6.79,0,0,1,.4,2.3v1.22H250.28a5.73,5.73,0,0,0,.22,1.41,5,5,0,0,0,.8,1.68,5.15,5.15,0,0,0,1.56,1.39,4.83,4.83,0,0,0,2.51.58,5.61,5.61,0,0,0,2.6-.64,4.64,4.64,0,0,0,1.92-1.74Zm-1.34-5.32a3.9,3.9,0,0,0-.37-1.69,4.49,4.49,0,0,0-1-1.38,4.7,4.7,0,0,0-1.48-.95,4.83,4.83,0,0,0-1.82-.34,4.43,4.43,0,0,0-2.37.58,5.17,5.17,0,0,0-1.5,1.34,5.31,5.31,0,0,0-.79,1.47,4.07,4.07,0,0,0-.23,1Z"/>
  <path class="cls-5" d="M265.77,227.78h1.74v22h-1.74Z"/>
  <path class="cls-5" d="M157.13,264.09h2l8.67,20.6h-2.15l-2.24-5.47H152.47l-2.33,5.47h-2Zm.9,2.09-4.8,11.29h9.46Z"/>
  <path class="cls-5" d="M170.26,275c0-.25,0-.56,0-.92s0-.72,0-1.09,0-.71,0-1,0-.57,0-.74h1.75c0,.5,0,1,0,1.45a5.42,5.42,0,0,0,.07.9h.09a4.7,4.7,0,0,1,1.75-1.9,5.09,5.09,0,0,1,2.85-.8,5.73,5.73,0,0,1,2.56.49,4.1,4.1,0,0,1,1.56,1.3,4.9,4.9,0,0,1,.79,1.85,10.81,10.81,0,0,1,.21,2.15v8H180v-7.91a8.25,8.25,0,0,0-.15-1.59,3.94,3.94,0,0,0-.51-1.38,2.67,2.67,0,0,0-1-1,3.49,3.49,0,0,0-1.7-.36,5,5,0,0,0-1.82.33,4,4,0,0,0-1.48,1,4.89,4.89,0,0,0-1,1.72A7.14,7.14,0,0,0,172,278v6.72h-1.74Z"/>
  <path class="cls-5" d="M196.89,279.05c0,.65,0,1.25,0,1.77s0,1,0,1.45,0,.87.07,1.26.08.77.13,1.16h-1.63a13.31,13.31,0,0,1-.17-2.18h-.06a4.89,4.89,0,0,1-1.88,1.92,5.93,5.93,0,0,1-2.83.61,6.6,6.6,0,0,1-1.72-.22,4.69,4.69,0,0,1-1.52-.7,3.81,3.81,0,0,1-1.09-1.23,3.76,3.76,0,0,1-.42-1.84,3.55,3.55,0,0,1,.79-2.44,4.89,4.89,0,0,1,1.93-1.35,9.34,9.34,0,0,1,2.45-.59c.86-.08,1.62-.13,2.28-.13h2v-.81a2.82,2.82,0,0,0-1.08-2.5,4.53,4.53,0,0,0-2.7-.76,6.14,6.14,0,0,0-4.11,1.51l-1-1.19a6.24,6.24,0,0,1,2.39-1.41,8.56,8.56,0,0,1,2.74-.48,6.1,6.1,0,0,1,3.9,1.15,4.43,4.43,0,0,1,1.45,3.71Zm-3.49-1.11a16.49,16.49,0,0,0-2.14.14,7.66,7.66,0,0,0-1.86.5,3.38,3.38,0,0,0-1.33.93,2.17,2.17,0,0,0-.49,1.46,2.2,2.2,0,0,0,.27,1.09,2.45,2.45,0,0,0,.72.78,3.24,3.24,0,0,0,1,.47,4,4,0,0,0,1.09.16,5.6,5.6,0,0,0,2.3-.41,3.89,3.89,0,0,0,1.44-1.06,3.75,3.75,0,0,0,.75-1.49,7.26,7.26,0,0,0,.2-1.67v-.9Z"/>
  <path class="cls-5" d="M201.84,262.69h1.75v22h-1.75Z"/>
  <path class="cls-5" d="M212.32,288.85a5,5,0,0,1-1.37,2.07,3.45,3.45,0,0,1-2.33.75,5.1,5.1,0,0,1-.87-.07,7.35,7.35,0,0,1-.84-.19l.17-1.63.77.22a3.08,3.08,0,0,0,.8.1,1.73,1.73,0,0,0,.83-.2,2.15,2.15,0,0,0,.63-.53,3.9,3.9,0,0,0,.45-.71,6.13,6.13,0,0,0,.33-.8l1.23-3.11-5.48-13.5h2l4.46,11.32,4.34-11.32h1.86Z"/>
  <path class="cls-5" d="M220.47,283.64l8.07-10.82h-7.66v-1.57H231v1l-8,10.83h8.38v1.57H220.47Z"/>
  <path class="cls-5" d="M246.29,282.16a5.9,5.9,0,0,1-2.52,2.21,8,8,0,0,1-3.3.67,7.12,7.12,0,0,1-2.79-.53,6.12,6.12,0,0,1-2.16-1.46,6.49,6.49,0,0,1-1.38-2.24,8.23,8.23,0,0,1-.48-2.87,7.64,7.64,0,0,1,.49-2.79,6.65,6.65,0,0,1,1.4-2.23,6.57,6.57,0,0,1,4.83-2,6.44,6.44,0,0,1,2.72.54,5.9,5.9,0,0,1,3.19,3.44,6.85,6.85,0,0,1,.41,2.3v1.22H235.41a6.3,6.3,0,0,0,.21,1.42,5.06,5.06,0,0,0,2.36,3.07,5,5,0,0,0,2.52.58,5.7,5.7,0,0,0,2.59-.64,4.66,4.66,0,0,0,1.92-1.75ZM245,276.83a4,4,0,0,0-.36-1.68,4.41,4.41,0,0,0-1-1.39,4.79,4.79,0,0,0-1.48-.94,4.87,4.87,0,0,0-1.82-.35,4.44,4.44,0,0,0-2.38.58,5.32,5.32,0,0,0-1.5,1.34,5.26,5.26,0,0,0-.78,1.47,3.61,3.61,0,0,0-.23,1Z"/>
  <path class="cls-5" d="M250.6,275c0-.25,0-.56,0-.92s0-.72,0-1.09,0-.71-.05-1,0-.57,0-.74h1.74c0,.5,0,1,.05,1.45a4.46,4.46,0,0,0,.07.9,6,6,0,0,1,1.72-2,4.26,4.26,0,0,1,2.56-.75,2.92,2.92,0,0,1,.51,0l.51.1-.21,1.72a2,2,0,0,0-.67-.12,4.89,4.89,0,0,0-2,.37,3.77,3.77,0,0,0-1.37,1,4.17,4.17,0,0,0-.8,1.5,6.46,6.46,0,0,0-.26,1.85v7.33H250.6Z"/>
</svg>