<svg xmlns="http://www.w3.org/2000/svg" viewBox="0 0 698.3 741.68">
  <defs>
    <style>.cls-1,.cls-4,.cls-5,.cls-6{fill:none;}.cls-1{stroke:#cdcccc;stroke-width:8.8px;}.cls-1,.cls-4,.cls-6{stroke-miterlimit:10;}.cls-2{fill:#cdcccc;}.cls-3{fill:#fff;}.cls-4,.cls-5,.cls-6{stroke:#cecccc;stroke-linecap:round;}.cls-4,.cls-5{stroke-width:2.33px;}.cls-5{stroke-linejoin:round;}.cls-6{stroke-width:2.33px;}</style>
  </defs>
  <title>BMA_Background_Homepage</title>
  <g id="Layer_2" data-name="Layer 2">
    <ellipse class="cls-1" cx="144.07" cy="414.17" rx="106.81" ry="120.39"/>
    <path class="cls-2" d="M39.19,321.34a2.46,2.46,0,0,1-2.46-2.46,2.4,2.4,0,0,1,.72-1.73L43.7,311a1.07,1.07,0,0,0,.32-.76,1,1,0,0,0-.32-.76,1.07,1.07,0,0,0-.76-.31,1,1,0,0,0-.76.31l-6.24,6.21a2.46,2.46,0,0,1-4.2-1.74,2.4,2.4,0,0,1,.72-1.73L38.71,306a1.08,1.08,0,0,0-1.52-1.53L31,310.67a2.45,2.45,0,1,1-3.48-3.46l6.25-6.2a1,1,0,0,0,.32-.76,1.08,1.08,0,0,0-1.84-.76L24.67,307a.68.68,0,0,1-.49.2.7.7,0,0,1-.49-.2.69.69,0,0,1,0-1l7.53-7.5a2.46,2.46,0,0,1,3.48,0,2.45,2.45,0,0,1,0,3.47l-6.25,6.19a1.06,1.06,0,0,0,0,1.52,1.06,1.06,0,0,0,1.52,0l6.24-6.21a2.46,2.46,0,0,1,3.48,0,2.45,2.45,0,0,1,0,3.47l-6.25,6.19a1.06,1.06,0,0,0,0,1.52,1.09,1.09,0,0,0,1.52,0l6.24-6.21a2.46,2.46,0,0,1,4.2,1.74,2.4,2.4,0,0,1-.72,1.73l-6.25,6.19a1.07,1.07,0,0,0,.76,1.83,1,1,0,0,0,.76-.31l7.49-7.45a.69.69,0,0,1,.49-.21.71.71,0,0,1,.49.21.69.69,0,0,1,0,1l-7.49,7.46A2.45,2.45,0,0,1,39.19,321.34Z" transform="translate(-23.06 -4.46)"/>
    <path class="cls-2" d="M33,298.24a2.05,2.05,0,0,1,1.44.59,2,2,0,0,1,0,2.85l-6.26,6.2a1.46,1.46,0,0,0-.44,1.06A1.51,1.51,0,0,0,30.28,310l6.23-6.21a2.05,2.05,0,0,1,2.88,0,2,2,0,0,1,.59,1.43,2,2,0,0,1-.59,1.42l-6.26,6.2a1.46,1.46,0,0,0-.44,1.06,1.5,1.5,0,0,0,1.51,1.51,1.5,1.5,0,0,0,1.07-.44l6.23-6.21a2.05,2.05,0,0,1,2.88,0A2,2,0,0,1,45,310.2a2,2,0,0,1-.59,1.42l-6.26,6.2a1.46,1.46,0,0,0-.44,1.06,1.5,1.5,0,0,0,.44,1.07,1.52,1.52,0,0,0,1.07.44,1.5,1.5,0,0,0,1.07-.44l7.48-7.46a.3.3,0,0,1,.19-.07.26.26,0,0,1,.18.07.24.24,0,0,1,0,.36l-7.48,7.46a2.05,2.05,0,0,1-2.88,0,2,2,0,0,1-.59-1.43,2,2,0,0,1,.59-1.42l6.26-6.2a1.51,1.51,0,0,0-1.07-2.57,1.52,1.52,0,0,0-1.07.44l-6.23,6.21a2.05,2.05,0,0,1-2.88,0,2,2,0,0,1-.59-1.43,2,2,0,0,1,.59-1.42l6.26-6.2a1.46,1.46,0,0,0,.44-1.06,1.51,1.51,0,0,0-2.58-1.07l-6.23,6.21a2.05,2.05,0,0,1-2.88,0,2,2,0,0,1,0-2.86L34,301.32a1.51,1.51,0,0,0-2.14-2.13l-7.52,7.49a.27.27,0,0,1-.19.08.24.24,0,0,1-.18-.08.22.22,0,0,1-.08-.18.25.25,0,0,1,.08-.18l7.52-7.49a2.05,2.05,0,0,1,1.44-.59m0-.87a2.92,2.92,0,0,0-2.05.84l-7.52,7.5a1.12,1.12,0,0,0,0,1.59,1.11,1.11,0,0,0,.79.33,1.13,1.13,0,0,0,.8-.33l7.52-7.5a.63.63,0,0,1,.46-.19.65.65,0,0,1,.46.19.63.63,0,0,1,.18.45.63.63,0,0,1-.18.46l-6.26,6.19a2.87,2.87,0,0,0,0,4.08,2.9,2.9,0,0,0,4.1,0l6.23-6.21a.68.68,0,0,1,.46-.19.7.7,0,0,1,.46.19.65.65,0,0,1,0,.91l-6.26,6.19a2.89,2.89,0,0,0,4.1,4.08l6.23-6.21a.65.65,0,0,1,.46-.18.67.67,0,0,1,.46.18.65.65,0,0,1,0,.91l-6.26,6.19a2.89,2.89,0,0,0,4.1,4.08l7.49-7.45a1.13,1.13,0,0,0-1.6-1.59l-7.48,7.46a.68.68,0,0,1-.92,0,.65.65,0,0,1,0-.91L45,312.24a2.89,2.89,0,0,0-4.1-4.08l-6.23,6.21a.68.68,0,0,1-.92,0,.65.65,0,0,1,0-.91L40,307.27a2.9,2.9,0,0,0-4.1-4.09l-6.23,6.22a.68.68,0,0,1-.92,0,.68.68,0,0,1-.19-.46.64.64,0,0,1,.19-.45L35,302.3a2.89,2.89,0,0,0,0-4.09,2.92,2.92,0,0,0-2-.84Z" transform="translate(-23.06 -4.46)"/>
    <path class="cls-2" d="M230.23,421.1a2.45,2.45,0,0,1-1.75-.72,2.47,2.47,0,0,1,0-3.49l6.26-6.21a1.07,1.07,0,0,0-.76-1.83,1.09,1.09,0,0,0-.77.31L227,415.39a2.47,2.47,0,0,1-3.49,0,2.46,2.46,0,0,1,0-3.48l6.26-6.22a1.08,1.08,0,0,0-.76-1.84,1.11,1.11,0,0,0-.77.31L222,410.4a2.47,2.47,0,0,1-3.49-3.49l6.26-6.21a1.08,1.08,0,0,0,.31-.76,1.08,1.08,0,0,0-1.07-1.08,1.11,1.11,0,0,0-.77.31l-7.52,7.53a.7.7,0,0,1-.49.2.68.68,0,0,1-.49-.2.69.69,0,0,1,0-1l7.52-7.52a2.46,2.46,0,1,1,3.49,3.48l-6.26,6.22a1.09,1.09,0,0,0,0,1.52,1.12,1.12,0,0,0,.77.32,1.09,1.09,0,0,0,.76-.32l6.23-6.23a2.46,2.46,0,1,1,3.49,3.48l-6.26,6.22a1.09,1.09,0,0,0,0,1.52,1.1,1.1,0,0,0,1.53,0l6.23-6.23a2.46,2.46,0,0,1,3.49,3.48l-6.26,6.22a1.07,1.07,0,0,0,0,1.52,1.1,1.1,0,0,0,1.53,0l7.49-7.49a.68.68,0,0,1,.49-.2.71.71,0,0,1,.49.2.7.7,0,0,1,.2.49.68.68,0,0,1-.2.49L232,420.38A2.44,2.44,0,0,1,230.23,421.1Z" transform="translate(-23.06 -4.46)"/>
    <path class="cls-2" d="M224,397.91a2,2,0,0,1,2,2,2,2,0,0,1-.6,1.43l-6.26,6.22a1.51,1.51,0,0,0,0,2.14,1.5,1.5,0,0,0,1.07.44,1.54,1.54,0,0,0,1.07-.44l6.23-6.24a2,2,0,0,1,2.87,0,2,2,0,0,1,0,2.87l-6.26,6.22a1.51,1.51,0,0,0,1.08,2.57,1.56,1.56,0,0,0,1.07-.43l6.23-6.24a2,2,0,0,1,2.87,2.87l-6.26,6.22a1.52,1.52,0,0,0,0,2.14,1.56,1.56,0,0,0,1.07.43,1.49,1.49,0,0,0,1.06-.43l7.49-7.49a.25.25,0,0,1,.37,0,.24.24,0,0,1,.07.18.28.28,0,0,1-.07.19l-7.49,7.48a2,2,0,0,1-2.87,0,2,2,0,0,1,0-2.87l6.26-6.22a1.51,1.51,0,0,0,0-2.13,1.51,1.51,0,0,0-2.13,0l-6.24,6.23a2,2,0,0,1-2.87,0,2,2,0,0,1,0-2.87l6.26-6.22a1.51,1.51,0,0,0,0-2.13,1.51,1.51,0,0,0-2.13,0l-6.24,6.23a2,2,0,0,1-2.87,0,2,2,0,0,1,0-2.87l6.26-6.22a1.5,1.5,0,0,0,0-2.13,1.51,1.51,0,0,0-2.13,0l-7.53,7.52a.22.22,0,0,1-.18.08.25.25,0,0,1-.19-.08.27.27,0,0,1,0-.36l7.53-7.53a2,2,0,0,1,1.44-.59m0-.87a2.85,2.85,0,0,0-2.05.85l-7.53,7.53a1.13,1.13,0,0,0,.8,1.92A1.11,1.11,0,0,0,216,407l7.53-7.53a.65.65,0,0,1,1.1.46.64.64,0,0,1-.19.45l-6.25,6.22a2.9,2.9,0,0,0,4.09,4.1l6.24-6.24a.64.64,0,0,1,.91,0,.65.65,0,0,1,0,.91l-6.25,6.22a2.9,2.9,0,0,0,4.09,4.1l6.24-6.24a.64.64,0,1,1,.91.91l-6.25,6.22a2.9,2.9,0,0,0,4.09,4.1l7.49-7.49a1.12,1.12,0,1,0-1.59-1.59l-7.49,7.48a.61.61,0,0,1-.45.19.62.62,0,0,1-.46-.19.65.65,0,0,1,0-.91L236,412a2.9,2.9,0,0,0,0-4.1,2.89,2.89,0,0,0-4.09,0l-6.24,6.23a.61.61,0,0,1-.45.19.62.62,0,0,1-.46-.19.65.65,0,0,1,0-.91L231,407a2.9,2.9,0,0,0,0-4.1,2.89,2.89,0,0,0-4.09,0l-6.24,6.23a.61.61,0,0,1-.45.19.65.65,0,0,1-.65-.64.64.64,0,0,1,.19-.46L226,402a2.9,2.9,0,0,0-2-4.95Z" transform="translate(-23.06 -4.46)"/>
    <path class="cls-2" d="M194.69,491.58a2.47,2.47,0,0,1-1.74-4.21l6.25-6.21a1.09,1.09,0,0,0,0-1.53,1.1,1.1,0,0,0-1.53,0l-6.23,6.24a2.46,2.46,0,0,1-3.48-3.49l6.25-6.21a1.09,1.09,0,0,0,0-1.53,1.07,1.07,0,0,0-.76-.31,1.11,1.11,0,0,0-.77.31l-6.23,6.24a2.46,2.46,0,1,1-3.48-3.49l6.25-6.21a1.07,1.07,0,0,0,.32-.76,1.12,1.12,0,0,0-.32-.77,1.07,1.07,0,0,0-.76-.31,1.11,1.11,0,0,0-.77.31l-7.52,7.53a.7.7,0,0,1-.49.2.68.68,0,0,1-.49-.2.7.7,0,0,1-.2-.49.68.68,0,0,1,.2-.49l7.52-7.53a2.49,2.49,0,0,1,1.75-.72,2.47,2.47,0,0,1,1.74,4.21l-6.26,6.21a1.11,1.11,0,0,0-.31.77,1.08,1.08,0,0,0,1.84.76l6.24-6.24a2.46,2.46,0,1,1,3.48,3.49l-6.26,6.21a1.08,1.08,0,0,0,.77,1.84,1.11,1.11,0,0,0,.76-.31l6.24-6.24a2.46,2.46,0,0,1,3.48,3.49l-6.26,6.21a1.1,1.1,0,0,0,0,1.53,1.13,1.13,0,0,0,.77.31,1.11,1.11,0,0,0,.76-.31l7.49-7.49a.68.68,0,0,1,.49-.2.68.68,0,0,1,.69.69.68.68,0,0,1-.2.49l-7.49,7.49A2.45,2.45,0,0,1,194.69,491.58Z" transform="translate(-23.06 -4.46)"/>
    <path class="cls-2" d="M188.46,468.39a2,2,0,0,1,1.43.59,2,2,0,0,1,.6,1.44,2,2,0,0,1-.59,1.43l-6.26,6.22a1.52,1.52,0,0,0,1.07,2.58,1.51,1.51,0,0,0,1.07-.45L192,474a2,2,0,0,1,2.88,2.87l-6.26,6.22a1.51,1.51,0,0,0,0,2.13,1.52,1.52,0,0,0,2.14,0L197,479a2,2,0,0,1,2.87,0,2,2,0,0,1,0,2.87l-6.26,6.22a1.51,1.51,0,0,0,0,2.14,1.56,1.56,0,0,0,1.07.43,1.46,1.46,0,0,0,1.07-.44l7.48-7.48a.25.25,0,0,1,.19-.08.22.22,0,0,1,.18.08.24.24,0,0,1,0,.36l-7.49,7.49a2,2,0,0,1-1.43.6,2.06,2.06,0,0,1-1.44-.6,2,2,0,0,1,0-2.87l6.26-6.22a1.5,1.5,0,0,0,0-2.13,1.52,1.52,0,0,0-2.14,0l-6.24,6.23a2,2,0,0,1-1.43.6,2.06,2.06,0,0,1-1.44-.6,2,2,0,0,1,0-2.87l6.26-6.22a1.52,1.52,0,0,0-1.07-2.58,1.47,1.47,0,0,0-1.07.45l-6.23,6.23a2.05,2.05,0,0,1-1.44.59,2,2,0,0,1-1.44-3.46l6.26-6.22a1.52,1.52,0,0,0-1.07-2.58,1.47,1.47,0,0,0-1.07.45l-7.53,7.52a.25.25,0,1,1-.36-.36L187,469a2,2,0,0,1,1.44-.59m0-.87a2.87,2.87,0,0,0-2.05.85l-7.53,7.52a1.13,1.13,0,0,0,1.6,1.6L188,470a.63.63,0,0,1,.46-.19.61.61,0,0,1,.45.19.6.6,0,0,1,.19.46.63.63,0,0,1-.18.45l-6.26,6.22a2.9,2.9,0,0,0,2.05,4.94,2.88,2.88,0,0,0,2-.85L193,475a.63.63,0,0,1,.46-.19.61.61,0,0,1,.45.19.64.64,0,0,1,0,.91l-6.26,6.22a2.9,2.9,0,0,0,4.1,4.09l6.23-6.23a.67.67,0,0,1,.91,0,.64.64,0,0,1,0,.91l-6.26,6.22a2.9,2.9,0,0,0,4.1,4.09l7.48-7.48a1.13,1.13,0,0,0,0-1.6,1.09,1.09,0,0,0-.79-.32,1.12,1.12,0,0,0-.8.32l-7.49,7.49a.63.63,0,0,1-.45.18.64.64,0,0,1-.46-1.09l6.26-6.22a2.9,2.9,0,0,0-4.1-4.09l-6.24,6.23a.63.63,0,0,1-.45.18.64.64,0,0,1-.46-1.09l6.26-6.22a2.9,2.9,0,0,0-4.1-4.09l-6.24,6.23a.61.61,0,0,1-.45.19.65.65,0,0,1-.65-.64.64.64,0,0,1,.19-.46l6.26-6.21a2.92,2.92,0,0,0,.84-2.05,2.89,2.89,0,0,0-2.89-2.9Z" transform="translate(-23.06 -4.46)"/>
    <path class="cls-2" d="M384.74,261.81a2.46,2.46,0,0,1-2.46-2.47,2.41,2.41,0,0,1,.72-1.74l6.25-6.21a1.09,1.09,0,0,0,0-1.53,1.09,1.09,0,0,0-1.52,0l-6.24,6.24a2.46,2.46,0,0,1-3.48-3.49l6.26-6.22a1.08,1.08,0,0,0,0-1.52,1.09,1.09,0,0,0-1.52,0l-6.24,6.24a2.46,2.46,0,0,1-3.48-3.49l6.26-6.22a1.08,1.08,0,0,0-1.53-1.52l-7.53,7.53a.68.68,0,0,1-.49.2.68.68,0,0,1-.69-.69.68.68,0,0,1,.2-.49l7.53-7.53a2.46,2.46,0,0,1,3.48,3.49L374,248.6a1.08,1.08,0,0,0,1.52,1.53l6.24-6.24a2.46,2.46,0,0,1,3.48,3.49L379,253.59a1,1,0,0,0-.32.76,1.08,1.08,0,0,0,1.08,1.08,1.09,1.09,0,0,0,.76-.31l6.24-6.24a2.46,2.46,0,0,1,3.48,3.49L384,258.58a1.08,1.08,0,0,0,.76,1.84,1.09,1.09,0,0,0,.76-.31l7.49-7.49a.7.7,0,0,1,.49-.2.68.68,0,0,1,.69.69.7.7,0,0,1-.2.49l-7.49,7.49A2.45,2.45,0,0,1,384.74,261.81Z" transform="translate(-23.06 -4.46)"/>
    <path class="cls-2" d="M378.51,238.61a2.06,2.06,0,0,1,1.44.6,2,2,0,0,1,0,2.87l-6.26,6.22a1.51,1.51,0,0,0,1.07,2.57,1.46,1.46,0,0,0,1.07-.44l6.23-6.23a2,2,0,0,1,2.88,0,2,2,0,0,1,0,2.87l-6.26,6.22a1.46,1.46,0,0,0-.44,1.06,1.5,1.5,0,0,0,.44,1.07,1.52,1.52,0,0,0,2.14,0l6.23-6.23a2,2,0,0,1,2.88,2.87l-6.26,6.22a1.5,1.5,0,0,0,0,2.13,1.52,1.52,0,0,0,1.07.44,1.5,1.5,0,0,0,1.07-.44l7.49-7.48a.25.25,0,1,1,.36.36l-7.48,7.49a2,2,0,1,1-2.88-2.87l6.26-6.22a1.51,1.51,0,0,0,0-2.14,1.55,1.55,0,0,0-2.14,0l-6.23,6.24a2.05,2.05,0,0,1-2.88,0,2,2,0,0,1,0-2.87l6.26-6.22a1.51,1.51,0,0,0,0-2.14,1.52,1.52,0,0,0-2.14,0l-6.23,6.24a2.05,2.05,0,0,1-2.88,0,2,2,0,0,1,0-2.87l6.26-6.22a1.51,1.51,0,0,0,0-2.13,1.51,1.51,0,0,0-1.07-.45,1.54,1.54,0,0,0-1.07.44l-7.52,7.53a.3.3,0,0,1-.19.08.27.27,0,0,1-.26-.26.3.3,0,0,1,.08-.19l7.52-7.52a2.06,2.06,0,0,1,1.44-.6m0-.86a2.88,2.88,0,0,0-2.05.85l-7.52,7.52a1.12,1.12,0,0,0,0,1.59,1.11,1.11,0,0,0,.79.33,1.13,1.13,0,0,0,.8-.33l7.52-7.52a.65.65,0,0,1,1.11.45.64.64,0,0,1-.19.46l-6.26,6.21a2.9,2.9,0,1,0,4.1,4.1l6.23-6.23a.65.65,0,0,1,.46-.19.63.63,0,0,1,.46.19.65.65,0,0,1,0,.91l-6.26,6.21a2.9,2.9,0,0,0,2.05,4.95,2.87,2.87,0,0,0,2.05-.85l6.23-6.23a.65.65,0,0,1,.92,0,.65.65,0,0,1,0,.91l-6.26,6.21a2.9,2.9,0,0,0,2.05,4.95,2.87,2.87,0,0,0,2.05-.85l7.49-7.49a1.13,1.13,0,0,0-1.6-1.59l-7.48,7.49a.65.65,0,0,1-.46.18.67.67,0,0,1-.46-.18.65.65,0,0,1,0-.91l6.26-6.22a2.9,2.9,0,0,0-4.1-4.09l-6.23,6.23a.65.65,0,0,1-.46.18.67.67,0,0,1-.46-.18.65.65,0,0,1,0-.91l6.26-6.22a2.9,2.9,0,0,0-4.1-4.09l-6.23,6.23a.63.63,0,0,1-.46.19.65.65,0,0,1-.46-.19.63.63,0,0,1-.18-.46.63.63,0,0,1,.18-.45l6.26-6.22a2.89,2.89,0,0,0,0-4.09,2.88,2.88,0,0,0-2.05-.85Z" transform="translate(-23.06 -4.46)"/>
    <path class="cls-2" d="M616.21,597.29a2.41,2.41,0,0,1-1.74-.72,2.46,2.46,0,0,1,0-3.48l6.26-6.22a1.07,1.07,0,0,0,.31-.76,1,1,0,0,0-.32-.76,1.09,1.09,0,0,0-1.52,0L613,591.58a2.46,2.46,0,0,1-3.48,0,2.46,2.46,0,0,1,0-3.48l6.26-6.22a1.08,1.08,0,0,0,0-1.52,1.06,1.06,0,0,0-1.52,0L608,586.59a2.46,2.46,0,0,1-3.48-3.48l6.26-6.22a1.07,1.07,0,0,0,.31-.76,1.07,1.07,0,0,0-1.84-.76l-7.53,7.52a.69.69,0,0,1-.49.21.71.71,0,0,1-.49-.21.69.69,0,0,1,0-1l7.53-7.52a2.46,2.46,0,0,1,3.48,3.48l-6.25,6.22a1.07,1.07,0,1,0,1.52,1.52l6.24-6.23a2.46,2.46,0,0,1,3.48,3.48l-6.25,6.22a1.06,1.06,0,0,0,0,1.52,1.07,1.07,0,0,0,.76.31,1,1,0,0,0,.76-.31l6.24-6.23a2.46,2.46,0,0,1,3.48,0,2.46,2.46,0,0,1,0,3.48l-6.25,6.22a1.06,1.06,0,0,0,0,1.52,1.07,1.07,0,0,0,.76.31,1,1,0,0,0,.76-.31l7.49-7.48a.67.67,0,0,1,.49-.21.65.65,0,0,1,.49.21.69.69,0,0,1,0,1L618,596.57A2.41,2.41,0,0,1,616.21,597.29Z" transform="translate(-23.06 -4.46)"/>
    <path class="cls-2" d="M610,574.1a2,2,0,0,1,2,2,2,2,0,0,1-.59,1.43l-6.26,6.22a1.51,1.51,0,0,0,1.07,2.58,1.5,1.5,0,0,0,1.07-.44l6.23-6.24a2,2,0,0,1,2.88,2.87l-6.26,6.22a1.51,1.51,0,0,0,2.14,2.14l6.23-6.24a2,2,0,0,1,2.88,2.87l-6.26,6.22a1.51,1.51,0,0,0,2.14,2.14l7.49-7.49a.27.27,0,0,1,.36,0,.24.24,0,0,1,.08.18.24.24,0,0,1-.08.19l-7.48,7.48a2,2,0,1,1-2.88-2.87l6.26-6.21a1.51,1.51,0,0,0-2.14-2.14l-6.23,6.23a2,2,0,0,1-1.44.6,2,2,0,0,1-2-2,2.05,2.05,0,0,1,.59-1.44l6.26-6.21a1.51,1.51,0,0,0,0-2.14,1.52,1.52,0,0,0-2.14,0l-6.23,6.23a2,2,0,0,1-1.44.6,2,2,0,0,1-2-2,2.05,2.05,0,0,1,.59-1.44l6.26-6.21a1.52,1.52,0,0,0,0-2.14,1.52,1.52,0,0,0-2.14,0l-7.52,7.53a.28.28,0,0,1-.19.07.24.24,0,0,1-.18-.07.3.3,0,0,1-.08-.19.26.26,0,0,1,.08-.18l7.52-7.53a2.05,2.05,0,0,1,1.44-.59m0-.87a2.93,2.93,0,0,0-2.05.85l-7.52,7.53a1.12,1.12,0,0,0,0,1.59,1.11,1.11,0,0,0,.79.33,1.13,1.13,0,0,0,.8-.33l7.52-7.53a.69.69,0,0,1,.46-.18.67.67,0,0,1,.46.18.68.68,0,0,1,.19.46.64.64,0,0,1-.19.45l-6.26,6.22a2.9,2.9,0,0,0,4.1,4.1l6.23-6.24a.7.7,0,0,1,.46-.19.68.68,0,0,1,.46.19.65.65,0,0,1,0,.91l-6.26,6.22a2.9,2.9,0,1,0,4.1,4.1l6.23-6.24a.68.68,0,0,1,.92,0,.65.65,0,0,1,0,.91l-6.26,6.22a2.9,2.9,0,1,0,4.1,4.1l7.49-7.49a1.13,1.13,0,0,0-1.6-1.59l-7.48,7.49a.65.65,0,0,1-.46.18.67.67,0,0,1-.46-.18.66.66,0,0,1,0-.92l6.26-6.21a2.9,2.9,0,1,0-4.1-4.1l-6.23,6.24a.65.65,0,0,1-.46.18.67.67,0,0,1-.46-.18.65.65,0,0,1,0-.91l6.26-6.22a2.9,2.9,0,1,0-4.1-4.1l-6.23,6.24a.67.67,0,0,1-.46.18.69.69,0,0,1-.46-.18.67.67,0,0,1-.18-.46.61.61,0,0,1,.18-.45l6.26-6.22a2.9,2.9,0,0,0,0-4.1,2.93,2.93,0,0,0-2-.85Z" transform="translate(-23.06 -4.46)"/>
    <path class="cls-2" d="M565.46,679.62a2.41,2.41,0,0,1-1.74-.72,2.46,2.46,0,0,1,0-3.48L570,669.2a1,1,0,0,0,.32-.76,1.07,1.07,0,0,0-.32-.76,1.09,1.09,0,0,0-1.52,0l-6.24,6.23a2.46,2.46,0,0,1-3.48-3.48l6.25-6.22a1.07,1.07,0,1,0-1.52-1.52l-6.24,6.23a2.46,2.46,0,0,1-3.48-3.48l6.25-6.22a1,1,0,0,0,.32-.76,1.09,1.09,0,0,0-1.08-1.08,1,1,0,0,0-.76.32l-7.53,7.52a.65.65,0,0,1-.49.21.67.67,0,0,1-.49-.21.69.69,0,0,1,0-1l7.53-7.52A2.46,2.46,0,0,1,561,660.2l-6.26,6.22a1.07,1.07,0,0,0-.31.76,1.07,1.07,0,0,0,1.84.76l6.24-6.23a2.46,2.46,0,0,1,3.48,0,2.46,2.46,0,0,1,0,3.48l-6.26,6.22a1.07,1.07,0,0,0-.31.76,1,1,0,0,0,.32.76,1.09,1.09,0,0,0,1.52,0l6.24-6.23a2.46,2.46,0,0,1,3.48,0,2.46,2.46,0,0,1,0,3.48l-6.26,6.22a1.08,1.08,0,0,0,0,1.52,1.07,1.07,0,0,0,.76.31,1,1,0,0,0,.76-.31l7.49-7.48a.69.69,0,0,1,.49-.21.71.71,0,0,1,.49.21.69.69,0,0,1,0,1l-7.49,7.48A2.41,2.41,0,0,1,565.46,679.62Z" transform="translate(-23.06 -4.46)"/>
    <path class="cls-2" d="M559.23,656.43a2,2,0,0,1,2,2,2.05,2.05,0,0,1-.59,1.44l-6.26,6.21a1.52,1.52,0,0,0,0,2.14,1.52,1.52,0,0,0,2.14,0l6.23-6.23a2,2,0,1,1,2.88,2.87l-6.26,6.21a1.5,1.5,0,0,0-.44,1.07,1.51,1.51,0,0,0,2.58,1.07l6.23-6.23a2,2,0,0,1,1.44-.6,2,2,0,0,1,1.43.6,2,2,0,0,1,0,2.87l-6.26,6.21a1.51,1.51,0,0,0,2.14,2.14l7.49-7.49a.27.27,0,0,1,.36,0,.25.25,0,0,1,.08.19.22.22,0,0,1-.08.18l-7.48,7.49a2,2,0,0,1-2.88-2.87l6.26-6.22a1.51,1.51,0,0,0-2.14-2.14l-6.23,6.24a2,2,0,0,1-3.47-1.44,2,2,0,0,1,.59-1.43l6.26-6.22a1.51,1.51,0,0,0,0-2.14,1.52,1.52,0,0,0-2.14,0l-6.23,6.24a2,2,0,0,1-3.47-1.44,2,2,0,0,1,.59-1.43l6.26-6.22a1.51,1.51,0,0,0-2.14-2.14l-7.53,7.53a.27.27,0,0,1-.36,0,.25.25,0,0,1-.08-.19.24.24,0,0,1,.08-.18l7.52-7.52a2,2,0,0,1,1.44-.6m0-.86a2.92,2.92,0,0,0-2.05.84l-7.53,7.53a1.13,1.13,0,0,0,1.6,1.59l7.52-7.53a.67.67,0,0,1,.46-.18.65.65,0,0,1,.46.19.63.63,0,0,1,.18.45.65.65,0,0,1-.18.46l-6.26,6.21a2.9,2.9,0,0,0,0,4.1,2.9,2.9,0,0,0,4.1,0l6.23-6.24a.67.67,0,0,1,.46-.18.69.69,0,0,1,.46.18.66.66,0,0,1,0,.92l-6.26,6.21a2.9,2.9,0,1,0,4.1,4.1l6.23-6.24a.65.65,0,0,1,.46-.18.67.67,0,0,1,.46.18.66.66,0,0,1,0,.92l-6.26,6.21a2.9,2.9,0,1,0,4.1,4.1l7.48-7.49a1.12,1.12,0,0,0,0-1.59,1.11,1.11,0,0,0-.79-.33,1.13,1.13,0,0,0-.8.33l-7.48,7.49a.67.67,0,0,1-.46.18.64.64,0,0,1-.46-1.09l6.26-6.22a2.9,2.9,0,1,0-4.1-4.1l-6.23,6.24a.67.67,0,0,1-.46.18.64.64,0,0,1-.46-1.09l6.26-6.22a2.9,2.9,0,0,0-4.1-4.1l-6.23,6.24a.65.65,0,0,1-1.11-.46.64.64,0,0,1,.19-.45l6.26-6.22a2.89,2.89,0,0,0-2-4.94Z" transform="translate(-23.06 -4.46)"/>
    <path class="cls-2" d="M668.86,684.81a2.41,2.41,0,0,1-1.74-.72,2.47,2.47,0,0,1,0-3.49l6.25-6.21a1.06,1.06,0,0,0,0-1.52,1.09,1.09,0,0,0-1.52,0l-6.24,6.23a2.46,2.46,0,0,1-3.48,0,2.46,2.46,0,0,1,0-3.48l6.26-6.22a1.08,1.08,0,0,0,0-1.52,1.06,1.06,0,0,0-1.52,0l-6.24,6.23a2.46,2.46,0,0,1-4.2-1.74,2.41,2.41,0,0,1,.72-1.74l6.26-6.22a1.07,1.07,0,0,0,.31-.76,1.07,1.07,0,0,0-1.84-.76l-7.53,7.52a.68.68,0,0,1-.49.2.69.69,0,0,1-.49-1.18l7.53-7.52a2.46,2.46,0,0,1,3.48,3.48l-6.25,6.22a1.06,1.06,0,0,0,0,1.52,1.06,1.06,0,0,0,1.52,0l6.24-6.23a2.46,2.46,0,0,1,3.48,3.48l-6.25,6.22a1.06,1.06,0,0,0,0,1.52,1.07,1.07,0,0,0,.76.31,1,1,0,0,0,.76-.31l6.24-6.23a2.44,2.44,0,0,1,3.48,0,2.46,2.46,0,0,1,0,3.48l-6.25,6.22a1.07,1.07,0,0,0,.76,1.83,1,1,0,0,0,.76-.31l7.49-7.49a.68.68,0,0,1,.49-.2.68.68,0,0,1,.69.69.68.68,0,0,1-.2.49l-7.49,7.49A2.41,2.41,0,0,1,668.86,684.81Z" transform="translate(-23.06 -4.46)"/>
    <path class="cls-2" d="M662.63,661.62a2,2,0,0,1,2,2,2,2,0,0,1-.59,1.43l-6.26,6.22a1.48,1.48,0,0,0-.44,1.07,1.5,1.5,0,0,0,1.51,1.51,1.52,1.52,0,0,0,1.07-.44l6.23-6.24a2,2,0,0,1,2.88,2.87l-6.26,6.22a1.51,1.51,0,0,0,0,2.14,1.55,1.55,0,0,0,2.14,0l6.23-6.24a2,2,0,0,1,2.88,2.87l-6.26,6.22a1.51,1.51,0,0,0,0,2.14,1.56,1.56,0,0,0,1.07.43,1.5,1.5,0,0,0,1.07-.43l7.49-7.49a.24.24,0,0,1,.36,0,.22.22,0,0,1,.08.18.25.25,0,0,1-.08.19l-7.48,7.48a2,2,0,1,1-2.88-2.87l6.26-6.22a1.5,1.5,0,0,0,0-2.13,1.52,1.52,0,0,0-2.14,0l-6.23,6.23a2,2,0,0,1-2.88-2.87l6.26-6.22a1.51,1.51,0,0,0-2.14-2.13l-6.23,6.23a2,2,0,0,1-2.88-2.87l6.26-6.22a1.46,1.46,0,0,0,.44-1.06,1.52,1.52,0,0,0-.44-1.07,1.52,1.52,0,0,0-2.14,0L654,670.1a.25.25,0,0,1-.19.08.22.22,0,0,1-.18-.08.24.24,0,0,1,0-.36l7.52-7.53a2.05,2.05,0,0,1,1.44-.59m0-.87a2.88,2.88,0,0,0-2,.85l-7.52,7.53a1.12,1.12,0,0,0,0,1.59,1.11,1.11,0,0,0,.79.33,1.13,1.13,0,0,0,.8-.33l7.52-7.53a.65.65,0,0,1,.92,0,.66.66,0,0,1,.19.46.64.64,0,0,1-.19.45l-6.26,6.22a2.9,2.9,0,0,0,0,4.1,2.92,2.92,0,0,0,4.1,0l6.23-6.24a.65.65,0,0,1,.92,0,.65.65,0,0,1,0,.91l-6.26,6.22a2.9,2.9,0,0,0,4.1,4.1l6.23-6.24a.68.68,0,0,1,.92,0,.65.65,0,0,1,0,.91l-6.26,6.22a2.9,2.9,0,0,0,4.1,4.1l7.49-7.49a1.13,1.13,0,0,0-1.6-1.59l-7.48,7.48a.62.62,0,0,1-.46.19.63.63,0,0,1-.46-.19.65.65,0,0,1,0-.91l6.26-6.21a2.9,2.9,0,1,0-4.1-4.1l-6.23,6.23a.62.62,0,0,1-.46.19.63.63,0,0,1-.46-.19.65.65,0,0,1,0-.91l6.26-6.21a2.9,2.9,0,1,0-4.1-4.1l-6.23,6.23a.63.63,0,0,1-.46.19.65.65,0,0,1-.46-.19.63.63,0,0,1-.18-.45.63.63,0,0,1,.18-.46l6.26-6.21a2.9,2.9,0,0,0-2-5Z" transform="translate(-23.06 -4.46)"/>
    <path class="cls-2" d="M606.61,132.17a2.44,2.44,0,0,1-1.74-.72,2.47,2.47,0,0,1,0-3.49l6.26-6.21a1.07,1.07,0,0,0-.77-1.83,1.07,1.07,0,0,0-.76.31l-6.24,6.23a2.41,2.41,0,0,1-1.74.72,2.44,2.44,0,0,1-1.74-.72,2.46,2.46,0,0,1,0-3.48l6.26-6.22a1.07,1.07,0,0,0,0-1.52,1,1,0,0,0-.76-.32,1.07,1.07,0,0,0-.76.31l-6.23,6.24a2.49,2.49,0,0,1-1.75.72,2.46,2.46,0,0,1-2.46-2.46,2.49,2.49,0,0,1,.72-1.75l6.26-6.21a1.07,1.07,0,0,0,.31-.76,1.07,1.07,0,0,0-1.84-.76l-7.53,7.52a.68.68,0,0,1-.49.2.71.71,0,0,1-.49-.2.69.69,0,0,1,0-1l7.53-7.52a2.46,2.46,0,1,1,3.48,3.48L595.87,119a1.08,1.08,0,0,0,.76,1.84,1.12,1.12,0,0,0,.77-.32l6.23-6.23a2.41,2.41,0,0,1,1.74-.72,2.46,2.46,0,0,1,1.74,4.2L600.86,124a1,1,0,0,0-.32.76,1.08,1.08,0,0,0,1.08,1.07,1.09,1.09,0,0,0,.77-.31l6.23-6.23a2.44,2.44,0,0,1,3.48,0,2.46,2.46,0,0,1,0,3.48L605.85,129a1.07,1.07,0,0,0,.76,1.83,1.09,1.09,0,0,0,.77-.31l7.48-7.49a.7.7,0,0,1,.49-.2.68.68,0,0,1,.49.2.71.71,0,0,1,.21.49.69.69,0,0,1-.21.49l-7.49,7.49A2.41,2.41,0,0,1,606.61,132.17Z" transform="translate(-23.06 -4.46)"/>
    <path class="cls-2" d="M600.38,109a2,2,0,0,1,1.44.59,2.05,2.05,0,0,1,.59,1.44,2,2,0,0,1-.59,1.43l-6.26,6.22a1.52,1.52,0,0,0-.44,1.07,1.5,1.5,0,0,0,1.51,1.51,1.5,1.5,0,0,0,1.07-.44l6.24-6.24a2,2,0,0,1,2.87,0,2,2,0,0,1,0,2.87l-6.26,6.22a1.51,1.51,0,0,0,0,2.14,1.55,1.55,0,0,0,2.14,0l6.24-6.24a2,2,0,0,1,1.43-.59,2,2,0,0,1,1.44,3.46l-6.26,6.22a1.51,1.51,0,0,0,0,2.14,1.56,1.56,0,0,0,1.07.43,1.5,1.5,0,0,0,1.07-.43l7.49-7.49a.26.26,0,0,1,.18-.08.3.3,0,0,1,.19.08.24.24,0,0,1,.07.18.28.28,0,0,1-.07.19l-7.49,7.48a2,2,0,0,1-1.44.6,2,2,0,0,1-1.43-.6,2,2,0,0,1,0-2.87l6.26-6.22a1.5,1.5,0,0,0,0-2.13,1.52,1.52,0,0,0-2.14,0l-6.23,6.23a2,2,0,0,1-3.47-1.43,2,2,0,0,1,.59-1.44l6.26-6.22a1.5,1.5,0,0,0,0-2.13,1.46,1.46,0,0,0-1.07-.44,1.5,1.5,0,0,0-1.07.44l-6.23,6.23a2,2,0,0,1-3.47-1.43,2,2,0,0,1,.59-1.44l6.26-6.22a1.46,1.46,0,0,0,.44-1.06,1.48,1.48,0,0,0-.44-1.07,1.46,1.46,0,0,0-1.07-.44,1.5,1.5,0,0,0-1.07.44l-7.52,7.52a.25.25,0,0,1-.19.08.22.22,0,0,1-.18-.08.24.24,0,0,1,0-.36l7.53-7.53a2,2,0,0,1,1.43-.59m0-.87a2.88,2.88,0,0,0-2,.85l-7.52,7.53a1.12,1.12,0,1,0,1.59,1.59l7.53-7.53a.65.65,0,0,1,.45-.19.68.68,0,0,1,.46.19.66.66,0,0,1,.19.46.64.64,0,0,1-.19.45l-6.26,6.22a2.9,2.9,0,0,0,4.1,4.1l6.24-6.24a.65.65,0,0,1,.45-.19.68.68,0,0,1,.46.19.65.65,0,0,1,0,.91l-6.26,6.22a2.9,2.9,0,0,0,4.1,4.1l6.24-6.24a.63.63,0,0,1,.45-.18.64.64,0,0,1,.46,1.09l-6.26,6.22a2.9,2.9,0,0,0,4.1,4.1l7.49-7.49a1.13,1.13,0,0,0-.8-1.92,1.11,1.11,0,0,0-.79.33l-7.49,7.48a.62.62,0,0,1-.46.19.61.61,0,0,1-.45-.19.64.64,0,0,1,0-.91l6.26-6.21a2.9,2.9,0,0,0,0-4.1,2.9,2.9,0,0,0-4.1,0l-6.23,6.23a.62.62,0,0,1-.46.19.61.61,0,0,1-.45-.19.64.64,0,0,1,0-.91l6.26-6.21a2.9,2.9,0,0,0,0-4.1,2.9,2.9,0,0,0-4.1,0l-6.23,6.23a.63.63,0,0,1-.46.19.61.61,0,0,1-.45-.19.6.6,0,0,1-.19-.45.63.63,0,0,1,.18-.46l6.26-6.21a2.9,2.9,0,0,0-2-5Z" transform="translate(-23.06 -4.46)"/>
    <path class="cls-2" d="M663.05,71.46a2.47,2.47,0,0,1-1.75-4.21L667.56,61a1.09,1.09,0,0,0,0-1.53,1.1,1.1,0,0,0-1.53,0l-6.23,6.24a2.47,2.47,0,0,1-3.49-3.49l6.26-6.21A1.08,1.08,0,1,0,661,54.53l-6.23,6.23a2.47,2.47,0,0,1-3.49-3.49l6.26-6.21a1.08,1.08,0,1,0-1.53-1.52l-7.52,7.52a.7.7,0,0,1-.49.2.68.68,0,0,1-.49-.2.69.69,0,0,1,0-1l7.52-7.53a2.48,2.48,0,0,1,1.75-.71,2.46,2.46,0,0,1,1.74,4.2l-6.26,6.22A1.07,1.07,0,0,0,652,59a1.08,1.08,0,0,0,.31.76,1.11,1.11,0,0,0,.77.31,1.07,1.07,0,0,0,.76-.31l6.23-6.23A2.46,2.46,0,0,1,663.55,57l-6.26,6.22a1.09,1.09,0,0,0,0,1.52,1.1,1.1,0,0,0,1.53,0l6.23-6.23A2.46,2.46,0,0,1,668.54,62l-6.26,6.22a1.09,1.09,0,0,0,0,1.52,1.1,1.1,0,0,0,1.53,0l7.49-7.49a.67.67,0,0,1,.48-.2.72.72,0,0,1,.5.2.69.69,0,0,1,0,1l-7.49,7.49A2.49,2.49,0,0,1,663.05,71.46Z" transform="translate(-23.06 -4.46)"/>
    <path class="cls-2" d="M656.82,48.27a2,2,0,0,1,2,2,2,2,0,0,1-.6,1.43L652,58a1.52,1.52,0,0,0,1.08,2.58,1.54,1.54,0,0,0,1.07-.44l6.23-6.24a2,2,0,0,1,2.87,0,2,2,0,0,1,0,2.87L657,62.94a1.51,1.51,0,0,0,0,2.14,1.52,1.52,0,0,0,1.07.43,1.56,1.56,0,0,0,1.07-.43l6.23-6.24a2,2,0,1,1,2.87,2.87L662,67.93a1.52,1.52,0,0,0,0,2.14,1.56,1.56,0,0,0,1.07.43,1.53,1.53,0,0,0,1.07-.43l7.48-7.49a.25.25,0,0,1,.37,0,.24.24,0,0,1,.07.18A.28.28,0,0,1,672,63l-7.49,7.48a2,2,0,0,1-2.87,0,2,2,0,0,1,0-2.87l6.26-6.22a1.51,1.51,0,0,0,0-2.13,1.51,1.51,0,0,0-2.13,0l-6.24,6.23a2,2,0,0,1-2.87,0,2,2,0,0,1,0-2.87l6.26-6.22a1.51,1.51,0,0,0,0-2.13,1.51,1.51,0,0,0-2.13,0l-6.24,6.23a2,2,0,0,1-1.43.6,2,2,0,0,1-1.44-.6,2,2,0,0,1,0-2.87l6.26-6.22a1.5,1.5,0,0,0,.44-1.06,1.47,1.47,0,0,0-.45-1.07,1.51,1.51,0,0,0-2.13,0l-7.53,7.52a.22.22,0,0,1-.18.08.25.25,0,0,1-.19-.08.27.27,0,0,1,0-.36l7.53-7.53a2,2,0,0,1,1.44-.59m0-.87a2.85,2.85,0,0,0-2.05.85l-7.53,7.52a1.13,1.13,0,0,0,.8,1.93,1.11,1.11,0,0,0,.79-.33l7.53-7.53a.65.65,0,0,1,1.1.46.64.64,0,0,1-.19.45L651,57a2.85,2.85,0,0,0-.85,2.05,2.89,2.89,0,0,0,2.9,2.89,2.92,2.92,0,0,0,2-.84l6.23-6.24a.68.68,0,0,1,.46-.19.65.65,0,0,1,.45.19.65.65,0,0,1,0,.91L656,62a2.9,2.9,0,0,0,4.09,4.1l6.24-6.24a.64.64,0,1,1,.91.91L661,67a2.9,2.9,0,0,0,4.09,4.1l7.49-7.49A1.12,1.12,0,1,0,671,62l-7.49,7.48a.61.61,0,0,1-.45.19.66.66,0,0,1-.46-.19.65.65,0,0,1,0-.91l6.25-6.21a2.9,2.9,0,0,0,0-4.1,2.89,2.89,0,0,0-4.09,0l-6.24,6.23a.61.61,0,0,1-.45.19.66.66,0,0,1-.46-.19.65.65,0,0,1,0-.91l6.25-6.21a2.9,2.9,0,0,0,0-4.1,2.89,2.89,0,0,0-4.09,0l-6.24,6.23a.61.61,0,0,1-.45.19.65.65,0,0,1-.65-.64.64.64,0,0,1,.19-.46l6.25-6.21a2.9,2.9,0,0,0,0-4.1,2.85,2.85,0,0,0-2-.85Z" transform="translate(-23.06 -4.46)"/>
    <path class="cls-2" d="M674.42,162a2.47,2.47,0,0,1-1.74-4.21l6.26-6.21a1.08,1.08,0,0,0-.77-1.84,1.11,1.11,0,0,0-.76.31l-6.24,6.24a2.46,2.46,0,0,1-3.48,0,2.47,2.47,0,0,1,0-3.49l6.26-6.21a1.08,1.08,0,0,0-.77-1.84,1.07,1.07,0,0,0-.76.31l-6.24,6.24a2.46,2.46,0,0,1-3.48-3.49l6.26-6.21a1.08,1.08,0,0,0,.31-.76,1.06,1.06,0,0,0-1.08-1.08,1.07,1.07,0,0,0-.76.31l-7.53,7.53a.68.68,0,0,1-.49.2.69.69,0,0,1-.49-1.18l7.53-7.53a2.46,2.46,0,1,1,3.48,3.49l-6.25,6.21a1.07,1.07,0,0,0-.32.77,1.11,1.11,0,0,0,.32.76,1.07,1.07,0,0,0,.76.31,1.11,1.11,0,0,0,.77-.31l6.23-6.24a2.46,2.46,0,1,1,3.48,3.49l-6.25,6.21a1.07,1.07,0,0,0-.32.77,1.08,1.08,0,0,0,1.08,1.07,1.13,1.13,0,0,0,.77-.31l6.23-6.24a2.46,2.46,0,0,1,3.48,3.49l-6.25,6.21a1.08,1.08,0,0,0,.76,1.84,1.13,1.13,0,0,0,.77-.31l7.48-7.49a.7.7,0,0,1,.49-.2.68.68,0,0,1,.49.2.69.69,0,0,1,0,1l-7.49,7.49A2.45,2.45,0,0,1,674.42,162Z" transform="translate(-23.06 -4.46)"/>
    <path class="cls-2" d="M668.19,138.83a2,2,0,0,1,1.44,3.46l-6.26,6.22a1.52,1.52,0,0,0,1.07,2.58,1.47,1.47,0,0,0,1.07-.45l6.24-6.23a2,2,0,0,1,1.43-.59,2,2,0,0,1,1.44,3.46l-6.26,6.22a1.5,1.5,0,0,0,0,2.13,1.52,1.52,0,0,0,2.14,0l6.24-6.23a2,2,0,0,1,1.43-.59,2,2,0,0,1,1.44,3.46l-6.26,6.22a1.51,1.51,0,0,0,0,2.14,1.56,1.56,0,0,0,1.07.43,1.46,1.46,0,0,0,1.07-.44l7.49-7.48a.22.22,0,0,1,.18-.08.25.25,0,0,1,.19.08.24.24,0,0,1,.07.18.22.22,0,0,1-.08.18L675.86,161a2.06,2.06,0,0,1-1.44.6,2,2,0,0,1-1.44-3.47l6.26-6.22a1.5,1.5,0,0,0,0-2.13,1.52,1.52,0,0,0-2.14,0L670.87,156a2.06,2.06,0,0,1-1.44.6A2,2,0,0,1,668,156a2,2,0,0,1-.6-1.43,2,2,0,0,1,.59-1.44l6.26-6.22a1.5,1.5,0,0,0,0-2.13,1.47,1.47,0,0,0-1.07-.45,1.51,1.51,0,0,0-1.07.45L665.88,151a2,2,0,0,1-2.87,0,2,2,0,0,1-.6-1.43,2,2,0,0,1,.59-1.44l6.26-6.22a1.51,1.51,0,0,0,0-2.13,1.47,1.47,0,0,0-1.07-.45,1.51,1.51,0,0,0-1.07.45l-7.52,7.52a.25.25,0,0,1-.19.08.22.22,0,0,1-.18-.08.24.24,0,0,1,0-.36l7.53-7.53a2,2,0,0,1,1.43-.59m0-.87a2.88,2.88,0,0,0-2.05.85l-7.52,7.52a1.13,1.13,0,0,0,0,1.6,1.12,1.12,0,0,0,1.59,0l7.52-7.53a.65.65,0,0,1,.46-.19.63.63,0,0,1,.46.19.64.64,0,0,1,0,.91l-6.26,6.22a2.9,2.9,0,0,0,4.1,4.09l6.24-6.23a.61.61,0,0,1,.45-.19.63.63,0,0,1,.46.19.65.65,0,0,1,0,.91l-6.26,6.22a2.9,2.9,0,0,0,4.1,4.09l6.23-6.23a.67.67,0,0,1,.46-.18.64.64,0,0,1,.46,1.09l-6.26,6.22a2.9,2.9,0,0,0,4.1,4.09l7.49-7.48a1.13,1.13,0,0,0,0-1.6,1.16,1.16,0,0,0-.8-.32,1.14,1.14,0,0,0-.79.32L674.88,160a.67.67,0,0,1-.91,0,.64.64,0,0,1,0-.91l6.26-6.21a2.9,2.9,0,0,0,0-4.1,2.9,2.9,0,0,0-4.1,0L669.89,155a.67.67,0,0,1-.91,0,.64.64,0,0,1,0-.91l6.26-6.21a2.9,2.9,0,0,0,0-4.1,2.9,2.9,0,0,0-4.1,0L664.9,150a.63.63,0,0,1-.46.19A.61.61,0,0,1,664,150a.6.6,0,0,1-.19-.45.63.63,0,0,1,.18-.46l6.26-6.21a2.88,2.88,0,0,0,.85-2,2.9,2.9,0,0,0-2.9-2.9Z" transform="translate(-23.06 -4.46)"/>
    <path class="cls-2" d="M595.46,214.87a2.47,2.47,0,0,1-1.75-4.21l6.26-6.21a1.1,1.1,0,0,0,0-1.53,1.1,1.1,0,0,0-1.53,0l-6.23,6.24a2.47,2.47,0,0,1-3.49-3.49l6.26-6.21a1.09,1.09,0,0,0,0-1.53,1.1,1.1,0,0,0-1.53,0l-6.23,6.24a2.47,2.47,0,0,1-3.49-3.49l6.26-6.21a1.1,1.1,0,0,0,.31-.76,1.08,1.08,0,0,0-1.08-1.08,1.1,1.1,0,0,0-.76.31l-7.52,7.53a.7.7,0,0,1-.49.2.68.68,0,0,1-.49-.2.69.69,0,0,1,0-1l7.52-7.53a2.47,2.47,0,0,1,4.21,1.75,2.45,2.45,0,0,1-.72,1.74l-6.26,6.22a1.07,1.07,0,0,0-.31.76,1.08,1.08,0,0,0,.31.76,1.11,1.11,0,0,0,.77.31,1.08,1.08,0,0,0,.76-.31l6.23-6.24a2.47,2.47,0,0,1,3.49,3.49l-6.26,6.22a1.07,1.07,0,0,0,0,1.52,1.1,1.1,0,0,0,1.53,0l6.23-6.24a2.47,2.47,0,0,1,3.49,3.49l-6.26,6.21a1.08,1.08,0,0,0,1.53,1.53l7.49-7.49a.69.69,0,0,1,1,0,.67.67,0,0,1,.21.49.65.65,0,0,1-.21.49l-7.48,7.49A2.49,2.49,0,0,1,595.46,214.87Z" transform="translate(-23.06 -4.46)"/>
    <path class="cls-2" d="M589.23,191.68a2,2,0,0,1,1.43.59,2,2,0,0,1,.6,1.44,2,2,0,0,1-.6,1.43l-6.26,6.22a1.52,1.52,0,0,0,1.08,2.58,1.54,1.54,0,0,0,1.07-.44l6.23-6.24a2,2,0,0,1,2.87,0,2,2,0,0,1,0,2.87l-6.26,6.22a1.51,1.51,0,0,0,1.08,2.57,1.56,1.56,0,0,0,1.07-.43l6.23-6.24a2,2,0,0,1,2.87,2.87l-6.26,6.22a1.52,1.52,0,0,0,0,2.14,1.56,1.56,0,0,0,1.07.43,1.49,1.49,0,0,0,1.06-.43L604,206a.25.25,0,0,1,.37,0,.24.24,0,0,1,.07.18.28.28,0,0,1-.07.19l-7.49,7.48a2,2,0,0,1-2.87,0,2,2,0,0,1,0-2.87l6.26-6.22a1.51,1.51,0,0,0,0-2.13,1.51,1.51,0,0,0-2.13,0l-6.24,6.23a2,2,0,0,1-2.87,0,2,2,0,0,1,0-2.87l6.26-6.22a1.51,1.51,0,0,0,0-2.13,1.51,1.51,0,0,0-2.13,0l-6.24,6.23A2,2,0,0,1,584,201l6.26-6.22a1.5,1.5,0,0,0,.44-1.06,1.47,1.47,0,0,0-.45-1.07,1.51,1.51,0,0,0-2.13,0l-7.53,7.52a.22.22,0,0,1-.18.08.25.25,0,0,1-.19-.08.27.27,0,0,1,0-.36l7.53-7.53a2,2,0,0,1,1.44-.59m0-.87a2.85,2.85,0,0,0-2.05.85l-7.53,7.52a1.13,1.13,0,0,0,.8,1.93,1.11,1.11,0,0,0,.79-.33l7.53-7.53a.65.65,0,0,1,1.1.46.64.64,0,0,1-.19.45l-6.25,6.22a2.89,2.89,0,1,0,4.09,4.09l6.24-6.23a.62.62,0,0,1,.46-.19.65.65,0,0,1,.45.19.65.65,0,0,1,0,.91l-6.25,6.22a2.89,2.89,0,0,0,0,4.09,2.89,2.89,0,0,0,4.09,0l6.24-6.23a.64.64,0,0,1,.91.91l-6.25,6.22a2.89,2.89,0,0,0,0,4.09,2.89,2.89,0,0,0,4.09,0L605,207a1.12,1.12,0,1,0-1.59-1.59l-7.49,7.48a.64.64,0,0,1-.91,0,.65.65,0,0,1,0-.91l6.25-6.21a2.9,2.9,0,0,0,0-4.1,2.89,2.89,0,0,0-4.09,0l-6.24,6.23a.64.64,0,0,1-.91,0,.65.65,0,0,1,0-.91l6.25-6.21a2.9,2.9,0,0,0,0-4.1,2.89,2.89,0,0,0-4.09,0l-6.24,6.23a.61.61,0,0,1-.45.19.65.65,0,0,1-.65-.64A.64.64,0,0,1,585,202l6.25-6.21a2.9,2.9,0,0,0,0-4.1,2.85,2.85,0,0,0-2-.85Z" transform="translate(-23.06 -4.46)"/>
    <ellipse class="cls-1" cx="587.09" cy="616.89" rx="106.81" ry="120.39"/>
    <ellipse class="cls-1" cx="583.1" cy="124.79" rx="106.81" ry="120.39"/>
    <path class="cls-2" d="M612.33,509a3,3,0,0,1-3-3V495c-3.09-1.32-5.06-4.62-5.06-8.56a3,3,0,1,1,5.91,0c0,1.82.92,3.25,2.1,3.25s2.1-1.4,2.1-3.25a3,3,0,1,1,5.91,0c0,3.94-2,7.24-5.05,8.56v11.05A3,3,0,0,1,612.33,509Z" transform="translate(-23.06 -4.46)"/>
    <path class="cls-3" d="M617.39,484.26a2.2,2.2,0,0,1,2.2,2.21c0,3.9-2.06,7-5.05,8v11.56a2.21,2.21,0,1,1-4.41,0V494.52c-3-1-5.06-4.15-5.06-8a2.21,2.21,0,1,1,4.41,0c0,2.28,1.23,4,2.85,4s2.85-1.72,2.85-4a2.21,2.21,0,0,1,2.21-2.21m0-1.5a3.71,3.71,0,0,0-3.71,3.71c0,1.5-.7,2.5-1.35,2.5s-1.35-1-1.35-2.5a3.71,3.71,0,1,0-7.41,0,9.84,9.84,0,0,0,5.06,9v10.57a3.71,3.71,0,1,0,7.41,0V495.51c3.1-1.56,5.05-5,5.05-9a3.71,3.71,0,0,0-3.7-3.71Z" transform="translate(-23.06 -4.46)"/>
    <path class="cls-2" d="M190.89,368.88a2.45,2.45,0,0,1-1.74-4.19l6.26-6.19a1.07,1.07,0,0,0,.31-.76,1,1,0,0,0-.32-.76,1,1,0,0,0-.76-.31,1.07,1.07,0,0,0-.76.31l-6.24,6.21a2.46,2.46,0,0,1-3.48,0,2.45,2.45,0,0,1,0-3.47l6.26-6.19a1.07,1.07,0,0,0,.31-.76,1,1,0,0,0-.32-.76,1.06,1.06,0,0,0-1.52,0l-6.23,6.21a2.49,2.49,0,0,1-1.75.72,2.45,2.45,0,0,1-1.74-.72,2.45,2.45,0,0,1,0-3.47l6.26-6.19a1.07,1.07,0,0,0,.31-.76,1.07,1.07,0,0,0-1.84-.76l-7.53,7.49a.69.69,0,0,1-.49.21.71.71,0,0,1-.49-.21.69.69,0,0,1,0-1l7.53-7.49a2.41,2.41,0,0,1,1.74-.72,2.46,2.46,0,0,1,2.47,2.45,2.41,2.41,0,0,1-.73,1.73l-6.25,6.19a1.07,1.07,0,0,0-.32.77,1.11,1.11,0,0,0,.32.76,1.09,1.09,0,0,0,1.52,0l6.24-6.21a2.45,2.45,0,1,1,3.48,3.46l-6.25,6.2a1,1,0,0,0-.32.76,1.08,1.08,0,0,0,1.08,1.07,1.09,1.09,0,0,0,.76-.31L192.9,356a2.46,2.46,0,1,1,3.48,3.47l-6.25,6.19a1,1,0,0,0-.32.76,1.08,1.08,0,0,0,1.08,1.07,1.07,1.07,0,0,0,.76-.31l7.49-7.46a.7.7,0,0,1,.49-.2.69.69,0,0,1,.49,1.17l-7.49,7.46A2.41,2.41,0,0,1,190.89,368.88Z" transform="translate(-23.06 -4.46)"/>
    <path class="cls-2" d="M184.66,345.78a2,2,0,0,1,2,2,2,2,0,0,1-.59,1.42l-6.26,6.2a1.51,1.51,0,0,0,1.07,2.57,1.48,1.48,0,0,0,1.07-.44l6.23-6.21a2.05,2.05,0,0,1,2.88,0,2,2,0,0,1,0,2.86l-6.26,6.19a1.51,1.51,0,0,0,0,2.13,1.52,1.52,0,0,0,1.07.44,1.46,1.46,0,0,0,1.07-.44l6.23-6.21a2.05,2.05,0,0,1,2.88,0,2,2,0,0,1,0,2.86l-6.26,6.19a1.52,1.52,0,0,0-.44,1.07,1.54,1.54,0,0,0,.44,1.07,1.56,1.56,0,0,0,1.07.43,1.5,1.5,0,0,0,1.07-.43l7.49-7.46a.24.24,0,0,1,.18-.08.27.27,0,0,1,.19.08.24.24,0,0,1,.07.18.27.27,0,0,1-.07.18l-7.49,7.45a2,2,0,0,1-1.44.6,2.05,2.05,0,0,1-1.44-.59,2,2,0,0,1,0-2.86l6.26-6.19a1.48,1.48,0,0,0,.44-1.07,1.49,1.49,0,0,0-1.51-1.5,1.56,1.56,0,0,0-1.07.43l-6.23,6.21a2,2,0,1,1-2.88-2.85l6.26-6.19a1.52,1.52,0,0,0,0-2.14,1.52,1.52,0,0,0-2.14,0l-6.23,6.21a2,2,0,0,1-1.44.59,2.05,2.05,0,0,1-1.44-.59,2,2,0,0,1,0-2.85l6.26-6.2a1.46,1.46,0,0,0,.44-1.06,1.5,1.5,0,0,0-.44-1.07,1.52,1.52,0,0,0-2.14,0l-7.52,7.5a.3.3,0,0,1-.19.07.25.25,0,0,1-.18-.43l7.52-7.5a2.05,2.05,0,0,1,1.44-.59m0-.87a2.93,2.93,0,0,0-2,.85l-7.52,7.5a1.12,1.12,0,0,0,.79,1.91,1.13,1.13,0,0,0,.8-.33l7.52-7.5a.69.69,0,0,1,.46-.18.67.67,0,0,1,.46.18.68.68,0,0,1,.19.46.64.64,0,0,1-.19.45l-6.26,6.19a2.9,2.9,0,0,0,4.1,4.09l6.23-6.21a.65.65,0,0,1,.46-.19.64.64,0,0,1,.46,1.09l-6.26,6.2a2.88,2.88,0,0,0,0,4.08,2.92,2.92,0,0,0,4.1,0l6.23-6.21a.68.68,0,0,1,.46-.19.62.62,0,0,1,.46.19.63.63,0,0,1,0,.9l-6.26,6.2a2.88,2.88,0,0,0,0,4.08,2.92,2.92,0,0,0,4.1,0l7.49-7.46a1.13,1.13,0,0,0-1.6-1.59l-7.48,7.46a.65.65,0,0,1-.46.18.67.67,0,0,1-.46-.18.63.63,0,0,1,0-.9l6.26-6.2a2.89,2.89,0,0,0-2.05-4.93,2.92,2.92,0,0,0-2,.85l-6.23,6.21a.65.65,0,0,1-.46.18.63.63,0,0,1-.45-.18.64.64,0,0,1,0-.91l6.26-6.19a2.88,2.88,0,0,0,0-4.08,2.92,2.92,0,0,0-4.1,0l-6.23,6.21a.63.63,0,0,1-.46.19.61.61,0,0,1-.45-.19.6.6,0,0,1-.19-.45.63.63,0,0,1,.18-.46l6.26-6.19a2.87,2.87,0,0,0,0-4.08,2.91,2.91,0,0,0-2.05-.85Z" transform="translate(-23.06 -4.46)"/>
    <path class="cls-2" d="M129.67,422.58a2.49,2.49,0,0,1-1.74-.72,2.45,2.45,0,0,1,0-3.47l6.26-6.19a1.09,1.09,0,0,0,0-1.52,1.1,1.1,0,0,0-1.53,0l-6.23,6.21a2.47,2.47,0,0,1-3.49,0,2.45,2.45,0,0,1,0-3.47l6.26-6.19a1.08,1.08,0,0,0,.31-.76,1.08,1.08,0,0,0-1.08-1.08,1.05,1.05,0,0,0-.76.32l-6.23,6.21a2.47,2.47,0,0,1-4.21-1.74,2.45,2.45,0,0,1,.72-1.73l6.26-6.19a1.1,1.1,0,0,0,.31-.76,1.08,1.08,0,0,0-1.08-1.08,1.08,1.08,0,0,0-.76.31l-7.52,7.5a.71.71,0,0,1-.49.2.68.68,0,0,1-.49-.2.67.67,0,0,1,0-1l7.52-7.5a2.46,2.46,0,1,1,3.49,3.47l-6.26,6.19a1.1,1.1,0,0,0-.31.76,1.07,1.07,0,0,0,1.84.76l6.23-6.21a2.46,2.46,0,1,1,3.49,3.47l-6.26,6.19a1.1,1.1,0,0,0,0,1.53,1.13,1.13,0,0,0,1.53,0l6.23-6.21a2.46,2.46,0,1,1,3.49,3.46l-6.26,6.2a1.06,1.06,0,0,0-.31.75,1.11,1.11,0,0,0,.31.77,1.1,1.1,0,0,0,1.53,0l7.48-7.46a.7.7,0,0,1,.49-.2.68.68,0,0,1,.49.2.67.67,0,0,1,0,1l-7.48,7.46A2.49,2.49,0,0,1,129.67,422.58Z" transform="translate(-23.06 -4.46)"/>
    <path class="cls-2" d="M123.44,399.48a2,2,0,0,1,2,2,2,2,0,0,1-.59,1.42l-6.26,6.2a1.5,1.5,0,0,0-.44,1.06,1.47,1.47,0,0,0,.45,1.07,1.51,1.51,0,0,0,2.13,0L127,405a2,2,0,0,1,3.46,1.43,2,2,0,0,1-.59,1.42l-6.26,6.2a1.5,1.5,0,0,0-.44,1.06,1.52,1.52,0,0,0,1.51,1.51,1.5,1.5,0,0,0,1.07-.44L132,410a2,2,0,0,1,3.46,1.43,2,2,0,0,1-.59,1.42l-6.26,6.2a1.51,1.51,0,0,0,0,2.14,1.53,1.53,0,0,0,1.06.43,1.5,1.5,0,0,0,1.07-.44l7.49-7.45a.25.25,0,0,1,.18-.08.27.27,0,0,1,.19.08.24.24,0,0,1,.07.17.24.24,0,0,1-.07.18l-7.49,7.46a2,2,0,0,1-1.44.6,2,2,0,0,1-1.43-.6,2,2,0,0,1-.6-1.42,2.05,2.05,0,0,1,.59-1.43l6.27-6.2a1.5,1.5,0,0,0-1.08-2.56,1.47,1.47,0,0,0-1.06.43l-6.24,6.21a2,2,0,1,1-2.87-2.85l6.26-6.2a1.51,1.51,0,0,0-2.14-2.13l-6.24,6.21a2,2,0,0,1-2.87,0,2,2,0,0,1-.6-1.43,2,2,0,0,1,.6-1.42l6.26-6.2a1.5,1.5,0,0,0,.44-1.06,1.52,1.52,0,0,0-1.52-1.51,1.46,1.46,0,0,0-1.06.44l-7.53,7.5a.27.27,0,0,1-.18.07.3.3,0,0,1-.19-.07.27.27,0,0,1-.07-.18.24.24,0,0,1,.07-.18l7.53-7.5a2,2,0,0,1,1.43-.59m0-.87a2.88,2.88,0,0,0-2,.85L113.87,407a1.12,1.12,0,1,0,1.59,1.59L123,401a.65.65,0,0,1,.45-.19.68.68,0,0,1,.46.19.66.66,0,0,1,.19.46.64.64,0,0,1-.19.45l-6.25,6.19a2.89,2.89,0,1,0,4.09,4.08L128,406a.64.64,0,0,1,.45-.18.67.67,0,0,1,.46.18.65.65,0,0,1,0,.91l-6.25,6.19a2.88,2.88,0,0,0,0,4.08,2.89,2.89,0,0,0,4.09,0L133,411a.64.64,0,1,1,.91.91l-6.25,6.19a2.89,2.89,0,0,0,4.09,4.09l7.49-7.46a1.12,1.12,0,1,0-1.59-1.59l-7.49,7.46a.65.65,0,0,1-.92-.91l6.26-6.19a2.88,2.88,0,0,0,0-4.08,2.85,2.85,0,0,0-2.05-.85,2.88,2.88,0,0,0-2,.85l-6.23,6.21a.64.64,0,0,1-.91-.91l6.25-6.19a2.89,2.89,0,0,0-2-4.93,2.85,2.85,0,0,0-2,.85l-6.24,6.21a.65.65,0,0,1-1.1-.46.64.64,0,0,1,.19-.45l6.25-6.19a2.89,2.89,0,0,0-2-4.93Z" transform="translate(-23.06 -4.46)"/>
  </g>
  <g id="Layer_3" data-name="Layer 3">
    <line class="cls-4" x1="213.31" y1="394.55" x2="348.06" y2="259.43"/>
    <polyline class="cls-5" points="342.58 259.43 348.07 259.43 348.07 264.92"/>
    <line class="cls-4" x1="24.09" y1="316.74" x2="92.85" y2="392.27"/>
    <polyline class="cls-5" points="93.14 386.79 92.85 392.27 87.37 391.98"/>
    <line class="cls-4" x1="116.54" y1="417.17" x2="156.27" y2="462.1"/>
    <polyline class="cls-5" points="156.56 456.62 156.28 462.1 150.8 461.82"/>
    <line class="cls-4" x1="115.54" y1="396.55" x2="155.06" y2="361.87"/>
    <polyline class="cls-5" points="149.58 361.57 155.06 361.86 154.78 367.34"/>
    <line class="cls-4" x1="375.92" y1="242.91" x2="554.06" y2="205.87"/>
    <polyline class="cls-5" points="549.47 202.88 554.07 205.87 551.08 210.47"/>
    <line class="cls-6" x1="574.91" y1="184.72" x2="574.45" y2="129.4"/>
    <polyline class="cls-5" points="570.66 133.36 574.45 129.39 578.42 133.17"/>
    <line class="cls-4" x1="373.59" y1="259.87" x2="577.93" y2="470.97"/>
    <polyline class="cls-5" points="577.88 465.49 577.94 470.98 572.45 471.04"/>
    <line class="cls-4" x1="584.76" y1="593.41" x2="550.14" y2="655.98"/>
    <polyline class="cls-5" points="555.41 654.47 550.14 655.99 548.62 650.72"/>
    <line class="cls-4" x1="599.39" y1="594.41" x2="635.39" y2="654.01"/>
    <polyline class="cls-5" points="636.71 648.68 635.39 654.01 630.07 652.69"/>
    <line class="cls-4" x1="588.86" y1="508.95" x2="589.73" y2="561.53"/>
    <polyline class="cls-5" points="593.61 557.66 589.72 561.54 585.85 557.65"/>
  </g>
</svg>