<?xml version="1.0" encoding="utf-8"?>
<!-- Generator: Adobe Illustrator 23.0.1, SVG Export Plug-In . SVG Version: 6.00 Build 0)  -->
<svg version="1.1" id="Layer_1" xmlns="http://www.w3.org/2000/svg" xmlns:xlink="http://www.w3.org/1999/xlink" x="0px" y="0px"
	 viewBox="0 0 14.5 20.24" style="enable-background:new 0 0 14.5 20.24;" xml:space="preserve">
<style type="text/css">
	.st0{fill:none;stroke:#999999;stroke-width:0.8;stroke-linejoin:round;stroke-miterlimit:10;}
	.st1{fill:none;stroke:#999999;stroke-width:0.8;stroke-linecap:round;stroke-linejoin:round;stroke-miterlimit:10;}
	.st2{fill:none;stroke:#999999;stroke-width:0.72;stroke-linecap:round;stroke-linejoin:round;stroke-miterlimit:10;}
</style>
<g>
	<path class="st0" d="M12.4,19.84H2.11c-0.47,0-0.86-0.38-0.86-0.86V5.49c0-0.47,0.38-0.86,0.86-0.86H12.4
		c0.47,0,0.86,0.38,0.86,0.86v13.49C13.25,19.45,12.87,19.84,12.4,19.84z"/>
	<line class="st1" x1="4.45" y1="7.44" x2="4.45" y2="17.04"/>
	<line class="st1" x1="7.25" y1="7.44" x2="7.25" y2="17.04"/>
	<line class="st1" x1="10.05" y1="7.44" x2="10.05" y2="17.04"/>
	<path class="st1" d="M13.69,4.64H0.81c-0.23,0-0.41-0.18-0.41-0.41V2.5c0-0.23,0.18-0.41,0.41-0.41h12.88
		c0.23,0,0.41,0.18,0.41,0.41v1.72C14.1,4.45,13.92,4.64,13.69,4.64z"/>
	<path class="st2" d="M8.84,2.09H5.66c-0.24,0-0.44-0.2-0.44-0.44V0.8c0-0.24,0.2-0.44,0.44-0.44h3.17c0.24,0,0.44,0.2,0.44,0.44
		v0.85C9.28,1.89,9.08,2.09,8.84,2.09z"/>
</g>
</svg>
