<svg id="Layer_1" data-name="Layer 1" xmlns="http://www.w3.org/2000/svg" viewBox="0 0 32.76 32.56">
  <defs>
    <style>.cls-1,.cls-2,.cls-3,.cls-5,.cls-6,.cls-7{fill:none;}.cls-1,.cls-2,.cls-3,.cls-4,.cls-6,.cls-7{stroke:#999;}.cls-1,.cls-2,.cls-3,.cls-4,.cls-5,.cls-7{stroke-linejoin:round;}.cls-1,.cls-2,.cls-3{stroke-width:1.6px;}.cls-2{stroke-dasharray:1.62 1.62;}.cls-3{stroke-dasharray:1.61 1.61;}.cls-4{fill:#fff;stroke-width:1.46px;}.cls-5{stroke:#fff;}.cls-5,.cls-6,.cls-7{stroke-linecap:round;}.cls-6{stroke-miterlimit:10;}.cls-6,.cls-7{stroke-width:1.8px;}</style>
  </defs>
  <polyline class="cls-1" points="31.96 19.32 31.96 20.12 31.16 20.12"/>
  <line class="cls-2" x1="29.55" y1="20.12" x2="14.21" y2="20.12"/>
  <polyline class="cls-1" points="13.4 20.12 12.6 20.12 12.6 19.32"/>
  <line class="cls-3" x1="12.6" y1="17.71" x2="12.6" y2="2.41"/>
  <polyline class="cls-1" points="12.6 1.6 12.6 0.8 13.4 0.8"/>
  <line class="cls-2" x1="15.01" y1="0.8" x2="30.36" y2="0.8"/>
  <polyline class="cls-1" points="31.16 0.8 31.96 0.8 31.96 1.6"/>
  <line class="cls-3" x1="31.96" y1="3.21" x2="31.96" y2="18.52"/>
  <rect class="cls-4" x="0.73" y="13.26" width="18.6" height="18.57"/>
  <path class="cls-5" d="M390.62,407.81l12.57-12.57Z" transform="translate(-383.62 -383.72)"/>
  <path class="cls-5" d="M394.29,407.39l12.58-12.58Z" transform="translate(-383.62 -383.72)"/>
  <line class="cls-6" x1="9.68" y1="23.06" x2="23.7" y2="9.03"/>
  <polyline class="cls-7" points="23.71 14.85 23.71 9.03 17.89 9.03"/>
</svg>