<?xml version="1.0" encoding="utf-8"?>
<!-- Generator: Adobe Illustrator 23.0.1, SVG Export Plug-In . SVG Version: 6.00 Build 0)  -->
<svg version="1.1" id="Layer_1" xmlns="http://www.w3.org/2000/svg" xmlns:xlink="http://www.w3.org/1999/xlink" x="0px" y="0px"
	 viewBox="0 0 27.71 46.51" style="enable-background:new 0 0 27.71 46.51;" xml:space="preserve">
<style type="text/css">
	.st0{fill:none;stroke:#666666;stroke-width:1.4;stroke-linejoin:round;stroke-miterlimit:10;}
	.st1{fill:#666666;}
</style>
<polygon class="st0" points="0.7,0.82 0.7,35.88 27.01,35.88 27.01,8.61 19.09,0.7 "/>
<polyline class="st0" points="18.98,1.1 18.98,8.43 26.89,8.43 "/>
<g>
	<path class="st1" d="M13.62,46.5c-0.62,0-1.12-0.5-1.12-1.12v-17.8c0-0.62,0.5-1.12,1.12-1.12s1.12,0.5,1.12,1.12v17.8
		C14.74,46,14.24,46.5,13.62,46.5z"/>
	<path class="st1" d="M13.62,46.51c-0.29,0-0.57-0.11-0.79-0.33l-5.14-5.14c-0.44-0.44-0.44-1.15,0-1.58c0.44-0.44,1.15-0.44,1.58,0
		l4.34,4.34l4.35-4.35c0.44-0.44,1.15-0.44,1.58,0c0.44,0.44,0.44,1.15,0,1.58l-5.14,5.14C14.19,46.4,13.9,46.51,13.62,46.51z"/>
</g>
</svg>
