<?xml version="1.0" encoding="utf-8"?>
<!-- Generator: Adobe Illustrator 23.0.1, SVG Export Plug-In . SVG Version: 6.00 Build 0)  -->
<svg version="1.1" id="Layer_1" xmlns="http://www.w3.org/2000/svg" xmlns:xlink="http://www.w3.org/1999/xlink" x="0px" y="0px"
	 viewBox="0 0 27.71 46.51" style="enable-background:new 0 0 27.71 46.51;" xml:space="preserve">
<style type="text/css">
	.st0{fill:none;stroke:#666666;stroke-width:1.4;stroke-linejoin:round;stroke-miterlimit:10;}
	.st1{fill:#666666;}
</style>
<polygon class="st0" points="0.7,0.82 0.7,35.88 27.01,35.88 27.01,8.61 19.09,0.7 "/>
<polyline class="st0" points="18.98,1.1 18.98,8.43 26.89,8.43 "/>
<g>
	<path class="st1" d="M14.32,46.5c-0.62,0-1.12-0.5-1.12-1.12v-17.8c0-0.62,0.5-1.12,1.12-1.12s1.12,0.5,1.12,1.12v17.8
		C15.44,46,14.94,46.5,14.32,46.5z"/>
	<path class="st1" d="M14.32,46.51c-0.29,0-0.57-0.11-0.79-0.33l-5.14-5.14c-0.44-0.44-0.44-1.15,0-1.58c0.44-0.44,1.15-0.44,1.58,0
		l4.34,4.34l4.35-4.35c0.44-0.44,1.15-0.44,1.58,0c0.44,0.44,0.44,1.15,0,1.58l-5.14,5.14C14.89,46.4,14.6,46.51,14.32,46.51z"/>
</g>
<g>
	<rect x="5.34" y="1.46" class="st1" width="2.52" height="2.1"/>
	<rect x="5.34" y="5.66" class="st1" width="2.52" height="2.1"/>
	<rect x="5.34" y="9.86" class="st1" width="2.52" height="2.1"/>
	<rect x="5.34" y="14.06" class="st1" width="2.52" height="2.1"/>
	<rect x="5.34" y="18.26" class="st1" width="2.52" height="2.1"/>
	<rect x="7.86" y="3.56" class="st1" width="2.52" height="2.1"/>
	<rect x="7.86" y="7.76" class="st1" width="2.52" height="2.1"/>
	<rect x="7.86" y="11.96" class="st1" width="2.52" height="2.1"/>
	<rect x="7.86" y="16.16" class="st1" width="2.52" height="2.1"/>
	<rect x="7.86" y="20.36" class="st1" width="2.52" height="2.1"/>
	<g>
		<path class="st1" d="M8.7,24.14v0.42c0,0.46-0.38,0.84-0.84,0.84c-0.46,0-0.84-0.38-0.84-0.84v-0.42h0.84H8.7 M10.38,22.46H7.86
			H5.34v2.1c0,1.39,1.13,2.52,2.52,2.52c1.39,0,2.52-1.13,2.52-2.52V22.46L10.38,22.46z"/>
	</g>
</g>
</svg>
