<?xml version="1.0" encoding="utf-8"?>
<!-- Generator: Adobe Illustrator 23.0.1, SVG Export Plug-In . SVG Version: 6.00 Build 0)  -->
<svg version="1.1" id="Layer_1" xmlns="http://www.w3.org/2000/svg" xmlns:xlink="http://www.w3.org/1999/xlink" x="0px" y="0px"
	 viewBox="0 0 27.71 46.51" style="enable-background:new 0 0 27.71 46.51;" xml:space="preserve">
<style type="text/css">
	.st0{fill:#666666;}
	.st1{fill:none;stroke:#666666;stroke-width:2.24;stroke-linecap:round;stroke-miterlimit:10;}
	.st2{fill:none;stroke:#666666;stroke-width:2.24;stroke-linecap:round;stroke-linejoin:round;stroke-miterlimit:10;}
</style>
<path class="st0" d="M27.01,36.58H0.7c-0.39,0-0.7-0.31-0.7-0.7V0.82c0-0.38,0.31-0.7,0.7-0.7L19.09,0c0.14-0.01,0.37,0.07,0.5,0.21
	l7.91,7.91c0.13,0.13,0.21,0.31,0.21,0.5v27.26C27.71,36.26,27.39,36.58,27.01,36.58z M1.4,35.18h24.91V8.9l-7.5-7.5L1.4,1.51V35.18
	z"/>
<path class="st0" d="M26.89,9.14h-7.91c-0.39,0-0.7-0.31-0.7-0.7V1.1h1.4v6.63h7.21V9.14z"/>
<g>
	<line class="st1" x1="14.32" y1="41.89" x2="14.32" y2="24.09"/>
	<polyline class="st2" points="19.46,29.23 14.32,24.09 9.18,29.23 	"/>
</g>
</svg>
