<?xml version="1.0" encoding="utf-8"?>
<!-- Generator: Adobe Illustrator 23.0.1, SVG Export Plug-In . SVG Version: 6.00 Build 0)  -->
<svg version="1.1" id="Layer_1" xmlns="http://www.w3.org/2000/svg" xmlns:xlink="http://www.w3.org/1999/xlink" x="0px" y="0px"
	 viewBox="0 0 20.88 16.69" style="enable-background:new 0 0 20.88 16.69;" xml:space="preserve">
<style type="text/css">
	.st0{fill:#90C3D3;}
</style>
<g>
	<g>
		<path class="st0" d="M8.23,8.9l2.85,1.64v3.29l-2.85,1.64l-2.85-1.64v-3.29L8.23,8.9 M8.23,7.69l-3.9,2.25v4.5l3.9,2.25l3.9-2.25
			v-4.5L8.23,7.69L8.23,7.69z"/>
	</g>
	<g>
		<path class="st0" d="M16.98,8.9l2.85,1.64v3.29l-2.85,1.64l-2.85-1.64v-3.29L16.98,8.9 M16.98,7.69l-3.9,2.25v4.5l3.9,2.25
			l3.9-2.25v-4.5L16.98,7.69L16.98,7.69z"/>
	</g>
	<g>
		<path class="st0" d="M12.66,1.21l2.85,1.64v3.29l-2.85,1.64L9.81,6.14V2.86L12.66,1.21 M12.66,0l-3.9,2.25v4.5L12.66,9l3.9-2.25
			v-4.5L12.66,0L12.66,0z"/>
	</g>
	<g>
		<path class="st0" d="M3.9,1.21l2.85,1.64v3.29L3.9,7.79L1.05,6.14V2.86L3.9,1.21 M3.9,0L0,2.25v4.5L3.9,9l3.9-2.25v-4.5L3.9,0
			L3.9,0z"/>
	</g>
</g>
</svg>
