<?xml version="1.0" encoding="utf-8"?>
<!-- Generator: Adobe Illustrator 23.0.1, SVG Export Plug-In . SVG Version: 6.00 Build 0)  -->
<svg version="1.1" id="Layer_1" xmlns="http://www.w3.org/2000/svg" xmlns:xlink="http://www.w3.org/1999/xlink" x="0px" y="0px"
	 viewBox="0 0 35 22.42" style="enable-background:new 0 0 35 22.42;" xml:space="preserve">
<style type="text/css">
	.st0{fill:#AFAFAF;}
	.st1{fill:#C6C6C6;}
	.st2{fill:#D8D8D8;}
	.st3{fill:#E8E8E8;}
</style>
<path class="st0" d="M13.34,6.23L13.34,6.23l7.35,4.4l4.38-1.84c0.89-0.38,1.85-0.58,2.82-0.58c0.16,0,0.32,0.01,0.48,0.02
	c-1.5-5.85-7.46-9.38-13.31-7.88c-2.64,0.68-4.93,2.31-6.42,4.58l0.11,0C10.37,4.92,11.96,5.38,13.34,6.23z"/>
<path class="st1" d="M13.35,6.23c-1.38-0.85-2.97-1.31-4.6-1.3l-0.11,0C3.81,4.99-0.06,8.95,0,13.78c0.02,1.75,0.57,3.46,1.57,4.89
	l6.48-2.73l2.88-1.21l6.41-2.7l3.35-1.41L13.35,6.23z"/>
<path class="st2" d="M28.37,8.22c-0.16-0.01-0.32-0.02-0.48-0.02c-0.97,0-1.93,0.2-2.82,0.58l-4.38,1.84l1.27,0.76l4.16,2.49
	l1.82,1.09l6.21,3.72c1.86-3.46,0.57-7.77-2.89-9.63C30.37,8.58,29.38,8.29,28.37,8.22L28.37,8.22z"/>
<path class="st3" d="M27.94,14.97l-1.82-1.09l-4.16-2.49l-1.27-0.76l-3.35,1.41l-6.41,2.7l-2.88,1.21l-6.48,2.73
	c1.63,2.35,4.32,3.75,7.18,3.75h19.14c2.61,0,5.02-1.43,6.26-3.74L27.94,14.97z"/>
</svg>
