<?xml version="1.0" encoding="UTF-8" standalone="no"?>
<svg
   xmlns:dc="http://purl.org/dc/elements/1.1/"
   xmlns:cc="http://creativecommons.org/ns#"
   xmlns:rdf="http://www.w3.org/1999/02/22-rdf-syntax-ns#"
   xmlns:svg="http://www.w3.org/2000/svg"
   xmlns="http://www.w3.org/2000/svg"
   viewBox="0 0 365.33334 297.33334"
   height="297.33334"
   width="365.33334"
   xml:space="preserve"
   id="svg2"
   version="1.1"><metadata
     id="metadata8"><rdf:RDF><cc:Work
         rdf:about=""><dc:format>image/svg+xml</dc:format><dc:type
           rdf:resource="http://purl.org/dc/dcmitype/StillImage" /></cc:Work></rdf:RDF></metadata><defs
     id="defs6"><clipPath
       id="clipPath18"
       clipPathUnits="userSpaceOnUse"><path
         id="path16"
         d="M 28.42,110.588 C 28.42,54.986 73.494,9.912 129.096,9.912 v 0 c 55.601,0 100.675,45.074 100.675,100.676 v 0 c 0,55.601 -45.074,100.675 -100.675,100.675 v 0 C 73.494,211.263 28.42,166.189 28.42,110.588" /></clipPath><radialGradient
       id="radialGradient30"
       spreadMethod="pad"
       gradientTransform="matrix(100.68826,0,0,100.68826,129,110.75)"
       gradientUnits="userSpaceOnUse"
       r="1"
       cy="0"
       cx="0"
       fy="0"
       fx="0"><stop
 id="stop24"
 offset="0"
 style="stop-opacity:1;stop-color:#82bc85" /><stop
         id="stop26"
         offset="0.732048"
         style="stop-opacity:1;stop-color:#82bc85" /><stop
         id="stop28"
         offset="1"
         style="stop-opacity:1;stop-color:#ffffff" /></radialGradient><clipPath
       id="clipPath40"
       clipPathUnits="userSpaceOnUse"><path
         id="path38"
         d="m 41.551,110.588 c 0,-48.349 39.195,-87.544 87.545,-87.544 v 0 c 48.348,0 87.544,39.195 87.544,87.544 v 0 c 0,48.349 -39.196,87.543 -87.544,87.543 v 0 c -48.35,0 -87.545,-39.194 -87.545,-87.543" /></clipPath><radialGradient
       id="radialGradient52"
       spreadMethod="pad"
       gradientTransform="matrix(87.735748,0,0,87.735748,128.75,110.25)"
       gradientUnits="userSpaceOnUse"
       r="1"
       cy="0"
       cx="0"
       fy="0"
       fx="0"><stop
 id="stop46"
 offset="0"
 style="stop-opacity:1;stop-color:#82bc85" /><stop
         id="stop48"
         offset="0.711719"
         style="stop-opacity:1;stop-color:#82bc85" /><stop
         id="stop50"
         offset="1"
         style="stop-opacity:1;stop-color:#ffffff" /></radialGradient><clipPath
       id="clipPath62"
       clipPathUnits="userSpaceOnUse"><path
         id="path60"
         d="M 0,223 H 274 V 0 H 0 Z" /></clipPath><clipPath
       id="clipPath74"
       clipPathUnits="userSpaceOnUse"><path
         id="path72"
         d="m 54.682,110.588 c 0,-41.097 33.316,-74.413 74.414,-74.413 v 0 c 41.097,0 74.412,33.316 74.412,74.413 v 0 c 0,41.096 -33.315,74.413 -74.412,74.413 v 0 c -41.098,0 -74.414,-33.317 -74.414,-74.413" /></clipPath><radialGradient
       id="radialGradient86"
       spreadMethod="pad"
       gradientTransform="matrix(74.465904,0,0,74.465904,129,110.5)"
       gradientUnits="userSpaceOnUse"
       r="1"
       cy="0"
       cx="0"
       fy="0"
       fx="0"><stop
 id="stop80"
 offset="0"
 style="stop-opacity:1;stop-color:#f6b4b3" /><stop
         id="stop82"
         offset="0.710593"
         style="stop-opacity:1;stop-color:#f6b4b3" /><stop
         id="stop84"
         offset="1"
         style="stop-opacity:1;stop-color:#ffffff" /></radialGradient><clipPath
       id="clipPath96"
       clipPathUnits="userSpaceOnUse"><path
         id="path94"
         d="M 0,223 H 274 V 0 H 0 Z" /></clipPath></defs><g
     transform="matrix(1.3333333,0,0,-1.3333333,0,297.33333)"
     id="g10"><g
       id="g12"><g
         clip-path="url(#clipPath18)"
         id="g14"><g
 id="g20"><g
   id="g22"><path
     id="path32"
     style="fill:url(#radialGradient30);stroke:none"
     d="M 28.42,110.588 C 28.42,54.986 73.494,9.912 129.096,9.912 v 0 c 55.601,0 100.675,45.074 100.675,100.676 v 0 c 0,55.601 -45.074,100.675 -100.675,100.675 v 0 C 73.494,211.263 28.42,166.189 28.42,110.588" /></g></g></g></g><g
       id="g34"><g
         clip-path="url(#clipPath40)"
         id="g36"><g
 id="g42"><g
   id="g44"><path
     id="path54"
     style="fill:url(#radialGradient52);stroke:none"
     d="m 41.551,110.588 c 0,-48.349 39.195,-87.544 87.545,-87.544 v 0 c 48.348,0 87.544,39.195 87.544,87.544 v 0 c 0,48.349 -39.196,87.543 -87.544,87.543 v 0 c -48.35,0 -87.545,-39.194 -87.545,-87.543" /></g></g></g></g><g
       id="g56"><g
         clip-path="url(#clipPath62)"
         id="g58"><g
 transform="translate(129.0957,185.001)"
 id="g64"><path
   id="path66"
   style="fill:#d8d8d9;fill-opacity:1;fill-rule:nonzero;stroke:none"
   d="m 0,0 c 41.097,0 74.412,-33.316 74.412,-74.413 0,-41.097 -33.315,-74.413 -74.412,-74.413 -41.097,0 -74.413,33.316 -74.413,74.413 C -74.413,-33.316 -41.097,0 0,0" /></g></g></g><g
       id="g68"><g
         clip-path="url(#clipPath74)"
         id="g70"><g
 id="g76"><g
   id="g78"><path
     id="path88"
     style="fill:url(#radialGradient86);stroke:none"
     d="m 54.682,110.588 c 0,-41.097 33.316,-74.413 74.414,-74.413 v 0 c 41.097,0 74.412,33.316 74.412,74.413 v 0 c 0,41.096 -33.315,74.413 -74.412,74.413 v 0 c -41.098,0 -74.414,-33.317 -74.414,-74.413" /></g></g></g></g><g
       id="g90"><g
         clip-path="url(#clipPath96)"
         id="g92"><g
 transform="translate(129.0957,170.9932)"
 id="g98"><path
   id="path100"
   style="fill:#ffffff;fill-opacity:1;fill-rule:nonzero;stroke:none"
   d="m 0,0 c 33.844,0 61.28,-27.437 61.28,-61.28 0,-33.846 -27.436,-61.282 -61.28,-61.282 -33.845,0 -61.281,27.436 -61.281,61.282 C -61.281,-27.437 -33.845,0 0,0" /></g><g
           transform="translate(163.1973,120.7173)"
           id="g102"><path
  id="path104"
  style="fill:#81bc85;fill-opacity:1;fill-rule:nonzero;stroke:none"
  d="M 0,0 C -0.173,0.471 -0.314,0.934 -0.424,1.388 -0.534,1.78 -0.651,2.172 -0.776,2.563 H -0.87 C -1.136,1.528 -1.396,0.69 -1.646,0.048 l -5.666,-15.633 h 13 z M 10.345,-28.209 6.488,-17.725 H -8.136 l -3.854,-10.484 h -2.564 L -1.835,5.502 h 2.211 l 12.578,-33.711 z m -32.844,0 v 23.931 c 0,0.58 0.086,2.233 0.258,4.961 h -0.094 c -0.486,-1.27 -0.893,-2.25 -1.222,-2.939 l -11.99,-25.953 H -36.3 l -12.037,25.812 c -0.392,0.83 -0.761,1.888 -1.105,3.173 h -0.118 c 0.111,-1.505 0.164,-3.001 0.164,-4.49 v -24.495 h -2.326 V 5.502 h 2.162 l 12.579,-27.153 c 0.077,-0.156 0.164,-0.368 0.258,-0.634 0.094,-0.267 0.196,-0.534 0.306,-0.8 0.156,-0.408 0.321,-0.862 0.494,-1.364 h 0.14 l 0.259,0.752 c 0.015,0.064 0.282,0.808 0.799,2.234 l 12.39,26.965 h 2.069 V -28.209 Z M -75.585,-11.8 v -14.294 h 6.253 c 2.649,0 4.675,0.635 6.077,1.904 1.403,1.27 2.104,3.072 2.104,5.407 0,4.656 -3.158,6.983 -9.474,6.983 z m 0,15.163 V -9.686 h 4.701 c 2.446,0 4.405,0.627 5.878,1.881 1.473,1.254 2.21,2.955 2.21,5.102 0,4.044 -2.391,6.066 -7.171,6.066 z m -2.328,-31.572 V 5.502 h 8.863 c 2.65,0 4.757,-0.713 6.324,-2.139 1.568,-1.426 2.351,-3.315 2.351,-5.667 0,-1.959 -0.521,-3.655 -1.563,-5.09 -1.042,-1.433 -2.496,-2.448 -4.361,-3.043 v -0.094 c 2.336,-0.22 4.177,-1.055 5.525,-2.504 1.348,-1.45 2.022,-3.296 2.022,-5.536 0,-2.837 -0.917,-5.152 -2.751,-6.947 -1.834,-1.795 -4.287,-2.691 -7.358,-2.691 z" /></g></g></g><text
       id="text108"
       style="font-variant:normal;font-weight:normal;font-stretch:normal;font-size:12px;font-family:'Myriad Pro';-inkscape-font-specification:MyriadPro-Regular;writing-mode:lr-tb;fill:#b6d8b7;fill-opacity:1;fill-rule:nonzero;stroke:none"
       transform="matrix(1,0,0,-1,205.9209,24.9473)"><!--<tspan
         id="tspan106"
         y="0"
         x="0 5.3039999 7.7880001 10.332 16.488001 18.972 25.128 27.612 33.768002 39.924 46.080002">v. 1.5.0000</tspan>--></text>
</g></svg>