<?xml version="1.0" encoding="UTF-8" standalone="no"?>
<svg
   xmlns:dc="http://purl.org/dc/elements/1.1/"
   xmlns:cc="http://creativecommons.org/ns#"
   xmlns:rdf="http://www.w3.org/1999/02/22-rdf-syntax-ns#"
   xmlns:svg="http://www.w3.org/2000/svg"
   xmlns="http://www.w3.org/2000/svg"
   viewBox="-20 0 1008.77734 1016.0333"
   height="1016.0333"
   width="1008.77734"
   xml:space="preserve"
   id="svg2"
   version="1.1"><metadata
     id="metadata8"><rdf:RDF><cc:Work
         rdf:about=""><dc:format>image/svg+xml</dc:format><dc:type
           rdf:resource="http://purl.org/dc/dcmitype/StillImage" /></cc:Work></rdf:RDF></metadata><defs
     id="defs6"><clipPath
       id="clipPath18"
       clipPathUnits="userSpaceOnUse"><path
         id="path16"
         d="M 0,762.025 H 726.583 V 0 H 0 Z" /></clipPath><clipPath
       id="clipPath26"
       clipPathUnits="userSpaceOnUse"><path
         id="path24"
         d="M 10.3594,752.447 H 718.756 V 9.03613 H 10.3594 Z" /></clipPath></defs><g
     transform="matrix(1.3333333,0,0,-1.3333333,0,1016.0333)"
     id="g10"><g
       id="g12"><g
         clip-path="url(#clipPath18)"
         id="g14"><g
           id="g20"><g
             id="g22" /><g
             id="g150"><g
               style="opacity:0.50349402"
               id="g148"
               clip-path="url(#clipPath26)"><g
                 id="g30"
                 transform="translate(167.9116,223.5029)"><path
                   id="path28"
                   style="fill:#b2b2b2;fill-opacity:1;fill-rule:nonzero;stroke:none"
                   d="m 0,0 c -54.203,0 -98.299,53.688 -98.299,119.686 0,65.995 44.096,119.682 98.299,119.682 54.199,0 98.299,-53.687 98.299,-119.682 C 98.299,53.688 54.199,0 0,0 m 0,241.614 c -9.193,0 -18.197,-1.486 -26.825,-4.364 -51.258,-12.586 -89.4,-60.442 -89.4,-117.564 0,-57.128 38.142,-104.986 89.4,-117.57 8.628,-2.877 17.632,-4.364 26.825,-4.364 26.895,0 52.168,12.709 71.163,35.792 18.942,23.02 29.375,53.611 29.375,86.142 0,67.233 -45.101,121.928 -100.538,121.928" /></g><g
                 id="g34"
                 transform="translate(616.4888,11.2832)"><path
                   id="path32"
                   style="fill:#b2b2b2;fill-opacity:1;fill-rule:nonzero;stroke:none"
                   d="m 0,0 c -54.199,0 -98.299,53.688 -98.299,119.683 0,65.993 44.1,119.678 98.299,119.678 54.201,0 98.299,-53.685 98.299,-119.678 C 98.299,53.688 54.201,0 0,0 m 0,241.609 c -9.193,0 -18.197,-1.488 -26.822,-4.364 -51.26,-12.588 -89.403,-60.442 -89.403,-117.562 0,-57.125 38.143,-104.985 89.403,-117.566 8.625,-2.88 17.629,-4.368 26.822,-4.368 26.896,0 52.168,12.711 71.166,35.792 18.941,23.02 29.373,53.61 29.373,86.142 0,67.231 -45.101,121.926 -100.539,121.926" /></g><g
                 id="g38"
                 transform="translate(618.2192,510.8379)"><path
                   id="path36"
                   style="fill:#b2b2b2;fill-opacity:1;fill-rule:nonzero;stroke:none"
                   d="m 0,0 c -54.203,0 -98.299,53.689 -98.299,119.684 0,65.992 44.096,119.677 98.299,119.677 54.199,0 98.299,-53.685 98.299,-119.677 C 98.299,53.689 54.199,0 0,0 m 0,241.61 c -9.193,0 -18.197,-1.488 -26.826,-4.364 -51.256,-12.588 -89.399,-60.443 -89.399,-117.562 C -116.225,62.56 -78.082,14.7 -26.826,2.116 -18.197,-0.762 -9.193,-2.25 0,-2.25 c 26.895,0 52.168,12.712 71.164,35.794 18.941,23.019 29.373,53.609 29.373,86.14 0,67.23 -45.101,121.926 -100.537,121.926" /></g><g
                 id="g42"
                 transform="translate(111.354,357.8018)"><path
                   id="path40"
                   style="fill:#b2b2b2;fill-opacity:1;fill-rule:nonzero;stroke:none"
                   d="M 0,0 C 3.172,-0.584 6.24,-0.522 8.001,1.07 9.917,2.797 10.215,4.517 9.521,5.322 8.644,6.336 6.118,6.095 3.157,3.651 1.761,2.499 0.699,1.252 0,0 m 4.671,-8.745 c 1.799,-0.201 3.969,0.089 6.413,1.117 2.228,0.936 3.032,2.475 2.821,3.004 C 13.733,-4.198 12.149,-3.73 8.56,-5.093 6.467,-5.889 5.235,-7.256 4.671,-8.745 m 4.7,-7.77 c 0.921,-0.142 1.96,-0.11 3.112,0.136 3.864,0.829 5.146,2.286 5.283,2.937 0.033,0.156 0.016,0.275 -0.173,0.412 -0.575,0.419 -2.525,0.71 -5.792,-1.174 -1.145,-0.659 -1.967,-1.449 -2.43,-2.311 m 6.24,-10.595 -0.884,0.321 c -4.922,1.787 -7.914,4.727 -8.205,8.07 -0.015,0.187 -0.022,0.372 -0.022,0.559 -2.229,1.076 -3.708,3.009 -4.305,5.037 -0.238,0.81 -0.359,1.678 -0.337,2.563 -1.922,0.716 -3.372,1.937 -4.227,3.351 -0.851,1.407 -1.295,3.326 -0.873,5.466 -2.727,0.751 -5.137,1.747 -6.524,2.369 l -3.042,-8.142 10.946,-3.234 -0.69,-2.336 -13.449,3.972 4.891,13.108 1.213,-0.611 c 1.58,-0.796 4.409,-1.998 7.429,-2.817 0.775,1.625 2.076,3.313 4.074,4.963 4.415,3.648 8.083,3.325 9.759,1.386 C 12.788,5.266 12.853,2.167 9.634,-0.738 7.07,-3.051 2.988,-3.063 -0.871,-2.305 c -0.253,-1.305 -0.071,-2.556 0.586,-3.644 0.534,-0.883 1.409,-1.653 2.569,-2.168 0.732,2.168 2.435,4.17 5.41,5.3 6.531,2.483 8.135,-0.065 8.472,-0.903 0.849,-2.12 -0.971,-4.824 -4.139,-6.155 -2.892,-1.213 -5.506,-1.544 -7.72,-1.272 0.026,-0.442 0.101,-0.875 0.224,-1.286 0.383,-1.292 1.24,-2.493 2.53,-3.266 0.649,1.397 1.851,2.643 3.526,3.608 4.055,2.333 7.02,2.063 8.438,1.031 0.942,-0.685 1.364,-1.764 1.125,-2.886 -0.458,-2.15 -3.131,-3.955 -7.155,-4.815 -1.459,-0.313 -2.788,-0.345 -3.984,-0.167 0.411,-1.996 2.474,-3.895 5.675,-5.233 l 3.025,4.389 7.122,-4.156 -1.227,-2.106 -5.171,3.02 z" /></g><g
                 id="g46"
                 transform="translate(26.3608,468.1094)"><path
                   id="path44"
                   style="fill:#b2b2b2;fill-opacity:1;fill-rule:nonzero;stroke:none"
                   d="M 0,0 C 3.172,-0.583 6.242,-0.522 8.003,1.07 9.917,2.798 10.217,4.517 9.522,5.322 8.644,6.335 6.119,6.096 3.16,3.65 1.762,2.499 0.7,1.251 0,0 m 4.673,-8.744 c 1.797,-0.203 3.966,0.089 6.412,1.114 2.227,0.938 3.032,2.478 2.819,3.006 C 13.736,-4.198 12.15,-3.729 8.562,-5.093 6.468,-5.89 5.236,-7.258 4.673,-8.744 m 4.699,-7.773 c 0.921,-0.138 1.96,-0.109 3.112,0.137 3.865,0.83 5.146,2.285 5.283,2.94 0.032,0.156 0.016,0.272 -0.173,0.412 -0.575,0.416 -2.525,0.71 -5.791,-1.174 -1.144,-0.661 -1.97,-1.449 -2.431,-2.315 m 6.24,-10.592 -0.884,0.319 c -4.923,1.787 -7.913,4.728 -8.206,8.072 -0.014,0.187 -0.023,0.373 -0.021,0.558 -2.23,1.076 -3.708,3.01 -4.305,5.037 -0.238,0.81 -0.359,1.679 -0.337,2.563 -1.921,0.716 -3.373,1.936 -4.227,3.351 -0.851,1.407 -1.295,3.324 -0.872,5.467 -2.728,0.751 -5.138,1.746 -6.526,2.37 l -3.041,-8.147 10.946,-3.232 -0.69,-2.336 -13.45,3.974 4.891,13.105 1.214,-0.61 c 1.58,-0.798 4.41,-1.996 7.429,-2.815 0.775,1.625 2.076,3.313 4.074,4.961 4.415,3.648 8.082,3.326 9.758,1.386 1.423,-1.648 1.489,-4.747 -1.731,-7.651 -2.562,-2.317 -6.645,-2.327 -10.505,-1.567 -0.253,-1.308 -0.07,-2.558 0.587,-3.646 0.534,-0.882 1.409,-1.651 2.569,-2.167 0.732,2.168 2.434,4.171 5.411,5.301 6.53,2.483 8.134,-0.064 8.471,-0.905 0.849,-2.119 -0.97,-4.823 -4.139,-6.153 -2.894,-1.215 -5.506,-1.544 -7.721,-1.272 0.027,-0.444 0.103,-0.876 0.224,-1.287 0.384,-1.294 1.24,-2.493 2.53,-3.267 0.651,1.399 1.853,2.646 3.527,3.608 4.056,2.334 7.02,2.067 8.438,1.032 0.942,-0.684 1.363,-1.763 1.125,-2.884 -0.457,-2.153 -3.132,-3.954 -7.155,-4.818 -1.458,-0.311 -2.788,-0.345 -3.984,-0.166 0.409,-1.996 2.474,-3.896 5.676,-5.231 l 3.024,4.388 7.122,-4.155 -1.227,-2.106 -5.17,3.02 z" /></g><g
                 id="g50"
                 transform="translate(375.0591,523.2139)"><path
                   id="path48"
                   style="fill:#b2b2b2;fill-opacity:1;fill-rule:nonzero;stroke:none"
                   d="M 0,0 C 3.172,-0.585 6.24,-0.525 8.002,1.067 9.916,2.796 10.217,4.518 9.521,5.321 8.645,6.335 6.119,6.095 3.158,3.65 1.76,2.498 0.699,1.252 0,0 m 4.672,-8.745 c 1.799,-0.203 3.967,0.089 6.412,1.116 2.229,0.936 3.031,2.476 2.82,3.004 C 13.736,-4.2 12.15,-3.731 8.561,-5.094 6.467,-5.891 5.236,-7.259 4.672,-8.745 m 4.699,-7.772 c 0.922,-0.139 1.961,-0.109 3.113,0.137 3.864,0.828 5.145,2.285 5.282,2.94 0.033,0.155 0.017,0.273 -0.172,0.412 -0.576,0.416 -2.526,0.708 -5.791,-1.174 -1.147,-0.66 -1.971,-1.451 -2.432,-2.315 m 6.242,-10.592 -0.886,0.32 c -4.922,1.787 -7.915,4.727 -8.206,8.07 -0.013,0.188 -0.021,0.372 -0.021,0.558 -2.229,1.077 -3.707,3.01 -4.305,5.039 -0.238,0.809 -0.357,1.676 -0.338,2.562 -1.919,0.716 -3.371,1.935 -4.226,3.35 -0.85,1.408 -1.293,3.324 -0.871,5.466 -2.731,0.752 -5.141,1.747 -6.53,2.371 l -3.036,-8.146 10.945,-3.231 -0.69,-2.336 -13.451,3.972 4.891,13.106 1.213,-0.611 c 1.58,-0.796 4.41,-1.995 7.429,-2.816 0.778,1.624 2.078,3.314 4.076,4.963 4.414,3.648 8.082,3.324 9.758,1.385 1.424,-1.648 1.489,-4.745 -1.73,-7.651 -2.565,-2.318 -6.647,-2.326 -10.508,-1.567 -0.252,-1.306 -0.068,-2.557 0.59,-3.645 0.531,-0.881 1.408,-1.651 2.566,-2.167 0.733,2.167 2.436,4.169 5.41,5.299 6.534,2.483 8.137,-0.063 8.473,-0.904 0.848,-2.119 -0.973,-4.822 -4.139,-6.153 -2.894,-1.215 -5.506,-1.544 -7.72,-1.272 0.027,-0.443 0.103,-0.876 0.224,-1.287 0.383,-1.293 1.24,-2.491 2.53,-3.267 0.652,1.398 1.851,2.645 3.525,3.609 4.057,2.333 7.021,2.065 8.439,1.033 0.944,-0.686 1.364,-1.764 1.125,-2.887 -0.457,-2.152 -3.13,-3.954 -7.156,-4.815 -1.457,-0.313 -2.785,-0.346 -3.982,-0.168 0.408,-1.995 2.472,-3.893 5.676,-5.23 l 3.023,4.388 7.121,-4.156 -1.227,-2.105 -5.169,3.017 z" /></g><g
                 id="g54"
                 transform="translate(606.229,180.6494)"><path
                   id="path52"
                   style="fill:#b2b2b2;fill-opacity:1;fill-rule:nonzero;stroke:none"
                   d="M 0,0 C 3.172,-0.585 6.24,-0.524 8.002,1.069 9.918,2.799 10.217,4.518 9.523,5.32 8.645,6.335 6.119,6.096 3.16,3.65 1.762,2.497 0.699,1.251 0,0 m 4.672,-8.745 c 1.799,-0.201 3.967,0.089 6.412,1.115 2.229,0.937 3.031,2.477 2.818,3.008 -0.168,0.424 -1.754,0.893 -5.341,-0.47 C 6.469,-5.89 5.236,-7.26 4.672,-8.745 m 4.699,-7.772 c 0.922,-0.14 1.959,-0.108 3.113,0.136 3.864,0.829 5.145,2.288 5.284,2.94 0.033,0.155 0.015,0.274 -0.174,0.413 -0.576,0.417 -2.526,0.709 -5.791,-1.175 -1.145,-0.66 -1.969,-1.449 -2.432,-2.314 m 6.242,-10.592 -0.886,0.32 c -4.922,1.788 -7.913,4.727 -8.204,8.069 -0.015,0.186 -0.023,0.373 -0.023,0.56 -2.23,1.077 -3.707,3.009 -4.307,5.038 -0.236,0.809 -0.357,1.677 -0.334,2.561 -1.921,0.717 -3.373,1.938 -4.228,3.348 -0.85,1.412 -1.291,3.329 -0.871,5.471 -2.731,0.749 -5.139,1.745 -6.526,2.368 l -3.041,-8.144 10.946,-3.234 -0.69,-2.333 -13.451,3.97 4.891,13.106 1.215,-0.609 c 1.58,-0.795 4.41,-1.996 7.427,-2.815 0.776,1.624 2.076,3.314 4.076,4.961 4.416,3.649 8.082,3.325 9.756,1.385 C 12.787,5.266 12.852,2.167 9.633,-0.74 7.07,-3.055 2.988,-3.066 -0.871,-2.307 c -0.254,-1.3 -0.07,-2.555 0.588,-3.645 0.533,-0.879 1.406,-1.649 2.566,-2.163 0.733,2.165 2.436,4.168 5.412,5.297 6.532,2.483 8.135,-0.063 8.471,-0.904 0.848,-2.119 -0.971,-4.823 -4.139,-6.155 -2.892,-1.212 -5.506,-1.539 -7.718,-1.27 0.023,-0.444 0.099,-0.877 0.222,-1.284 0.383,-1.295 1.24,-2.495 2.53,-3.271 0.652,1.401 1.853,2.648 3.527,3.61 4.055,2.333 7.019,2.066 8.437,1.033 0.942,-0.685 1.364,-1.765 1.125,-2.889 -0.457,-2.151 -3.13,-3.951 -7.156,-4.816 -1.457,-0.307 -2.787,-0.34 -3.982,-0.162 0.41,-1.997 2.474,-3.9 5.676,-5.233 l 3.025,4.388 7.121,-4.157 -1.227,-2.104 -5.171,3.018 z" /></g><g
                 id="g58"
                 transform="translate(559.0435,82.0684)"><path
                   id="path56"
                   style="fill:#b2b2b2;fill-opacity:1;fill-rule:nonzero;stroke:none"
                   d="M 0,0 C 3.172,-0.585 6.24,-0.523 8.004,1.067 9.918,2.797 10.217,4.517 9.523,5.32 8.643,6.334 6.117,6.096 3.158,3.651 1.762,2.496 0.699,1.251 0,0 m 4.672,-8.747 c 1.797,-0.199 3.967,0.09 6.412,1.119 2.227,0.932 3.031,2.472 2.822,3.003 -0.17,0.424 -1.756,0.894 -5.345,-0.469 C 6.469,-5.893 5.236,-7.259 4.672,-8.747 m 4.701,-7.772 c 0.92,-0.138 1.957,-0.109 3.109,0.138 3.866,0.83 5.149,2.288 5.286,2.939 0.033,0.155 0.015,0.273 -0.172,0.412 -0.576,0.421 -2.528,0.708 -5.795,-1.171 -1.143,-0.662 -1.969,-1.452 -2.428,-2.318 m 6.24,-10.593 -0.884,0.324 c -4.924,1.784 -7.915,4.726 -8.206,8.068 -0.017,0.186 -0.023,0.371 -0.023,0.557 -2.229,1.081 -3.707,3.011 -4.305,5.041 -0.236,0.808 -0.355,1.676 -0.336,2.56 -1.921,0.719 -3.371,1.937 -4.226,3.349 -0.852,1.407 -1.295,3.328 -0.873,5.469 -2.727,0.751 -5.139,1.748 -6.526,2.371 l -3.041,-8.146 10.946,-3.231 -0.688,-2.336 -13.453,3.973 4.893,13.104 1.213,-0.611 c 1.582,-0.794 4.41,-1.995 7.429,-2.815 0.776,1.623 2.076,3.315 4.074,4.963 4.416,3.647 8.082,3.325 9.758,1.386 1.424,-1.649 1.489,-4.747 -1.73,-7.652 -2.563,-2.317 -6.645,-2.326 -10.506,-1.567 -0.252,-1.307 -0.068,-2.557 0.588,-3.646 0.531,-0.879 1.408,-1.652 2.568,-2.167 0.731,2.167 2.434,4.169 5.408,5.301 6.534,2.481 8.137,-0.064 8.475,-0.904 0.848,-2.122 -0.973,-4.827 -4.141,-6.157 -2.894,-1.212 -5.504,-1.543 -7.718,-1.271 0.025,-0.442 0.103,-0.874 0.222,-1.282 0.383,-1.296 1.239,-2.495 2.531,-3.27 0.651,1.4 1.85,2.644 3.526,3.608 4.055,2.335 7.019,2.066 8.439,1.032 0.942,-0.682 1.362,-1.763 1.123,-2.886 -0.455,-2.152 -3.129,-3.954 -7.156,-4.816 -1.457,-0.309 -2.787,-0.345 -3.98,-0.166 0.408,-1.995 2.47,-3.895 5.675,-5.231 l 3.022,4.389 7.123,-4.156 -1.227,-2.105 -5.171,3.017 z" /></g><g
                 id="g62"
                 transform="translate(661.4048,82.0684)"><path
                   id="path60"
                   style="fill:#b2b2b2;fill-opacity:1;fill-rule:nonzero;stroke:none"
                   d="M 0,0 C 3.172,-0.585 6.24,-0.523 8.002,1.067 9.918,2.797 10.217,4.517 9.521,5.32 8.643,6.334 6.117,6.096 3.158,3.651 1.76,2.496 0.697,1.251 0,0 m 4.672,-8.747 c 1.797,-0.199 3.967,0.09 6.41,1.119 2.231,0.932 3.033,2.472 2.82,3.003 -0.17,0.424 -1.752,0.894 -5.341,-0.469 C 6.467,-5.893 5.234,-7.259 4.672,-8.747 m 4.699,-7.772 c 0.92,-0.138 1.961,-0.109 3.113,0.138 3.864,0.83 5.145,2.288 5.284,2.939 0.033,0.155 0.015,0.273 -0.172,0.412 -0.578,0.421 -2.528,0.708 -5.795,-1.171 -1.143,-0.662 -1.969,-1.452 -2.43,-2.318 m 6.24,-10.593 -0.886,0.324 c -4.92,1.784 -7.911,4.726 -8.202,8.068 -0.015,0.186 -0.023,0.371 -0.023,0.557 -2.229,1.081 -3.709,3.011 -4.307,5.041 -0.234,0.808 -0.357,1.676 -0.336,2.56 -1.919,0.719 -3.371,1.937 -4.224,3.349 -0.852,1.407 -1.295,3.328 -0.873,5.469 -2.727,0.751 -5.139,1.748 -6.528,2.371 l -3.039,-8.146 10.946,-3.231 -0.69,-2.336 -13.451,3.973 4.891,13.104 1.215,-0.611 c 1.582,-0.794 4.41,-1.995 7.427,-2.815 0.776,1.623 2.078,3.315 4.074,4.963 4.418,3.647 8.083,3.325 9.758,1.386 1.424,-1.649 1.489,-4.747 -1.728,-7.652 -2.563,-2.317 -6.647,-2.326 -10.506,-1.567 -0.254,-1.307 -0.07,-2.557 0.588,-3.646 0.533,-0.879 1.408,-1.652 2.566,-2.167 0.733,2.167 2.436,4.169 5.41,5.301 6.534,2.481 8.137,-0.064 8.471,-0.904 0.852,-2.122 -0.969,-4.827 -4.137,-6.157 -2.894,-1.212 -5.506,-1.543 -7.72,-1.271 0.027,-0.442 0.103,-0.874 0.222,-1.282 0.387,-1.296 1.241,-2.495 2.532,-3.27 0.65,1.4 1.851,2.644 3.525,3.608 4.057,2.335 7.019,2.066 8.439,1.032 0.942,-0.682 1.362,-1.763 1.127,-2.886 -0.459,-2.152 -3.132,-3.954 -7.158,-4.816 -1.457,-0.309 -2.789,-0.345 -3.98,-0.166 0.406,-1.995 2.47,-3.895 5.672,-5.231 l 3.025,4.389 7.123,-4.156 -1.227,-2.105 -5.173,3.017 z" /></g><g
                 id="g66"
                 transform="translate(606.3423,558.6572)"><path
                   id="path64"
                   style="fill:#b2b2b2;fill-opacity:1;fill-rule:nonzero;stroke:none"
                   d="M 0,0 C 3.174,-0.584 6.24,-0.523 8,1.069 9.918,2.798 10.217,4.517 9.52,5.322 8.645,6.335 6.117,6.096 3.158,3.649 1.762,2.498 0.699,1.252 0,0 m 4.67,-8.745 c 1.799,-0.201 3.969,0.09 6.414,1.116 2.229,0.935 3.031,2.474 2.82,3.005 -0.17,0.426 -1.754,0.895 -5.343,-0.468 C 6.467,-5.891 5.234,-7.258 4.67,-8.745 m 4.703,-7.772 c 0.918,-0.139 1.961,-0.109 3.111,0.137 3.862,0.829 5.145,2.285 5.282,2.94 0.033,0.155 0.017,0.273 -0.172,0.413 -0.574,0.416 -2.524,0.707 -5.791,-1.174 -1.147,-0.661 -1.969,-1.452 -2.43,-2.316 m 6.238,-10.593 -0.884,0.321 c -4.922,1.788 -7.913,4.728 -8.204,8.069 -0.015,0.189 -0.023,0.373 -0.023,0.559 -2.23,1.077 -3.707,3.01 -4.305,5.04 -0.238,0.808 -0.359,1.676 -0.336,2.56 -1.921,0.718 -3.373,1.938 -4.228,3.351 -0.85,1.408 -1.293,3.325 -0.871,5.468 -2.729,0.751 -5.139,1.746 -6.528,2.369 l -3.039,-8.145 10.946,-3.232 -0.69,-2.336 L -16,-9.114 -11.109,3.991 -9.896,3.38 c 1.58,-0.793 4.41,-1.994 7.427,-2.815 0.778,1.625 2.078,3.316 4.076,4.962 4.414,3.649 8.082,3.325 9.758,1.386 C 12.787,5.265 12.854,2.168 9.635,-0.738 7.07,-3.055 2.988,-3.063 -0.873,-2.306 -1.125,-3.61 -0.939,-4.862 -0.283,-5.949 0.248,-6.831 1.125,-7.6 2.285,-8.117 c 0.731,2.168 2.434,4.17 5.41,5.3 6.532,2.483 8.133,-0.064 8.473,-0.903 0.846,-2.122 -0.975,-4.824 -4.141,-6.154 -2.892,-1.216 -5.506,-1.544 -7.72,-1.272 0.025,-0.444 0.103,-0.875 0.224,-1.286 0.383,-1.295 1.24,-2.493 2.53,-3.267 0.65,1.398 1.851,2.643 3.527,3.607 4.055,2.333 7.019,2.065 8.437,1.033 0.944,-0.686 1.364,-1.764 1.127,-2.885 -0.459,-2.153 -3.132,-3.955 -7.158,-4.817 -1.457,-0.312 -2.787,-0.345 -3.982,-0.167 0.41,-1.996 2.472,-3.894 5.674,-5.231 l 3.025,4.388 7.121,-4.156 -1.227,-2.104 -5.171,3.017 z" /></g><g
                 id="g70"
                 transform="translate(607.5356,656.563)"><path
                   id="path68"
                   style="fill:#b2b2b2;fill-opacity:1;fill-rule:nonzero;stroke:none"
                   d="M 0,0 C 3.172,-0.583 6.24,-0.521 8,1.069 9.916,2.798 10.215,4.518 9.521,5.322 8.643,6.336 6.119,6.096 3.156,3.652 1.76,2.5 0.697,1.251 0,0 m 4.67,-8.743 c 1.801,-0.203 3.967,0.089 6.414,1.115 2.229,0.935 3.031,2.475 2.818,3.003 -0.17,0.426 -1.754,0.895 -5.343,-0.467 C 6.467,-5.888 5.234,-7.257 4.67,-8.743 m 4.699,-7.774 c 0.922,-0.139 1.961,-0.108 3.113,0.138 3.864,0.83 5.147,2.286 5.286,2.939 0.029,0.156 0.013,0.274 -0.176,0.412 -0.576,0.417 -2.524,0.709 -5.791,-1.174 -1.145,-0.659 -1.969,-1.451 -2.432,-2.315 m 6.242,-10.592 -0.884,0.321 c -4.924,1.787 -7.913,4.727 -8.206,8.071 -0.015,0.186 -0.023,0.372 -0.023,0.559 -2.228,1.075 -3.707,3.008 -4.305,5.037 -0.236,0.808 -0.357,1.678 -0.336,2.562 -1.921,0.717 -3.373,1.936 -4.226,3.349 -0.85,1.41 -1.293,3.326 -0.873,5.468 -2.727,0.75 -5.137,1.746 -6.526,2.37 l -3.039,-8.145 10.944,-3.233 -0.688,-2.336 -13.451,3.973 4.891,13.106 1.213,-0.611 c 1.582,-0.796 4.41,-1.995 7.429,-2.815 0.776,1.624 2.078,3.314 4.074,4.964 4.416,3.645 8.084,3.322 9.758,1.383 1.424,-1.648 1.489,-4.747 -1.73,-7.652 -2.563,-2.315 -6.645,-2.325 -10.504,-1.566 -0.254,-1.307 -0.07,-2.558 0.586,-3.646 0.533,-0.881 1.408,-1.65 2.57,-2.167 0.729,2.169 2.434,4.172 5.408,5.302 6.534,2.481 8.135,-0.064 8.473,-0.905 0.848,-2.119 -0.971,-4.825 -4.141,-6.155 -2.892,-1.213 -5.504,-1.543 -7.72,-1.272 0.027,-0.441 0.105,-0.874 0.224,-1.284 0.383,-1.294 1.241,-2.493 2.532,-3.269 0.65,1.4 1.849,2.645 3.525,3.61 4.055,2.333 7.019,2.063 8.437,1.032 0.944,-0.685 1.366,-1.764 1.127,-2.887 -0.457,-2.152 -3.13,-3.953 -7.158,-4.816 -1.457,-0.311 -2.787,-0.346 -3.98,-0.166 0.408,-1.995 2.47,-3.896 5.674,-5.232 l 3.025,4.389 7.121,-4.156 -1.228,-2.106 -5.168,3.02 z" /></g><g
                 id="g74"
                 transform="translate(673.9028,621.4048)"><path
                   id="path72"
                   style="fill:#b2b2b2;fill-opacity:1;fill-rule:nonzero;stroke:none"
                   d="M 0,0 C 3.176,-0.583 6.24,-0.523 8.004,1.069 9.918,2.798 10.219,4.517 9.523,5.322 8.646,6.334 6.119,6.096 3.158,3.652 1.764,2.497 0.699,1.251 0,0 m 4.674,-8.745 c 1.797,-0.202 3.967,0.09 6.412,1.117 2.227,0.934 3.031,2.474 2.82,3.004 -0.172,0.425 -1.754,0.895 -5.343,-0.469 C 6.469,-5.89 5.238,-7.258 4.674,-8.745 m 4.699,-7.772 c 0.92,-0.14 1.959,-0.109 3.113,0.137 3.864,0.829 5.145,2.285 5.284,2.939 0.031,0.156 0.015,0.274 -0.176,0.411 -0.574,0.419 -2.524,0.71 -5.789,-1.173 -1.145,-0.661 -1.971,-1.449 -2.432,-2.314 m 6.24,-10.592 -0.884,0.32 c -4.924,1.787 -7.913,4.727 -8.204,8.069 -0.017,0.188 -0.023,0.374 -0.023,0.559 -2.231,1.078 -3.707,3.011 -4.305,5.039 -0.238,0.808 -0.359,1.677 -0.338,2.562 -1.921,0.717 -3.371,1.937 -4.226,3.349 -0.852,1.409 -1.295,3.327 -0.871,5.468 -2.729,0.751 -5.139,1.748 -6.528,2.37 l -3.041,-8.144 10.946,-3.233 -0.688,-2.337 -13.451,3.973 4.893,13.106 1.211,-0.611 c 1.58,-0.796 4.41,-1.995 7.429,-2.813 0.776,1.624 2.078,3.313 4.074,4.96 4.416,3.648 8.084,3.325 9.758,1.386 1.424,-1.648 1.49,-4.747 -1.73,-7.653 -2.563,-2.315 -6.645,-2.325 -10.506,-1.565 -0.25,-1.307 -0.068,-2.559 0.59,-3.647 0.529,-0.881 1.406,-1.65 2.566,-2.165 0.733,2.167 2.434,4.168 5.41,5.3 6.532,2.482 8.137,-0.064 8.473,-0.904 0.85,-2.12 -0.973,-4.824 -4.139,-6.156 -2.894,-1.211 -5.506,-1.541 -7.72,-1.272 0.027,-0.442 0.101,-0.873 0.222,-1.284 0.385,-1.294 1.242,-2.493 2.53,-3.268 0.652,1.4 1.853,2.646 3.527,3.608 4.058,2.335 7.019,2.066 8.439,1.033 0.942,-0.685 1.364,-1.764 1.123,-2.888 -0.455,-2.151 -3.129,-3.951 -7.154,-4.815 -1.457,-0.31 -2.787,-0.345 -3.98,-0.165 0.406,-1.996 2.47,-3.896 5.673,-5.233 l 3.026,4.39 7.121,-4.156 -1.227,-2.107 -5.172,3.02 z" /></g><g
                 id="g78"
                 transform="translate(658.1079,710.3872)"><path
                   id="path76"
                   style="fill:#b2b2b2;fill-opacity:1;fill-rule:nonzero;stroke:none"
                   d="M 0,0 C 3.174,-0.584 6.242,-0.522 8.002,1.069 9.916,2.798 10.217,4.516 9.521,5.322 8.645,6.335 6.119,6.096 3.158,3.65 1.762,2.498 0.699,1.252 0,0 m 4.672,-8.745 c 1.799,-0.201 3.969,0.088 6.412,1.117 2.229,0.935 3.033,2.475 2.822,3.005 C 13.734,-4.199 12.15,-3.73 8.561,-5.092 6.469,-5.889 5.236,-7.257 4.672,-8.745 m 4.701,-7.771 c 0.92,-0.141 1.959,-0.11 3.111,0.137 3.864,0.828 5.145,2.285 5.284,2.938 0.033,0.155 0.015,0.275 -0.172,0.413 -0.578,0.417 -2.528,0.709 -5.793,-1.175 -1.145,-0.659 -1.969,-1.449 -2.43,-2.313 m 6.24,-10.593 -0.884,0.321 c -4.924,1.787 -7.913,4.727 -8.208,8.069 -0.013,0.188 -0.021,0.372 -0.019,0.558 -2.231,1.077 -3.707,3.01 -4.307,5.04 -0.238,0.808 -0.355,1.676 -0.338,2.561 -1.919,0.717 -3.371,1.936 -4.224,3.351 -0.854,1.408 -1.295,3.325 -0.873,5.466 -2.729,0.753 -5.139,1.747 -6.528,2.369 l -3.039,-8.144 10.946,-3.232 -0.688,-2.336 -13.453,3.972 4.895,13.106 1.211,-0.612 c 1.578,-0.794 4.408,-1.994 7.429,-2.815 0.774,1.626 2.076,3.315 4.072,4.963 4.418,3.649 8.086,3.324 9.76,1.385 1.424,-1.648 1.489,-4.746 -1.73,-7.65 -2.565,-2.317 -6.647,-2.327 -10.508,-1.569 -0.25,-1.305 -0.068,-2.556 0.588,-3.645 0.533,-0.881 1.41,-1.649 2.57,-2.166 0.731,2.166 2.434,4.17 5.408,5.3 6.532,2.483 8.137,-0.064 8.475,-0.903 0.85,-2.122 -0.973,-4.824 -4.141,-6.155 -2.892,-1.214 -5.506,-1.543 -7.72,-1.271 0.027,-0.444 0.101,-0.876 0.224,-1.285 0.385,-1.295 1.24,-2.495 2.53,-3.269 0.652,1.398 1.851,2.645 3.525,3.608 4.059,2.333 7.021,2.064 8.441,1.033 0.94,-0.686 1.362,-1.765 1.123,-2.886 -0.457,-2.153 -3.129,-3.954 -7.154,-4.815 -1.459,-0.312 -2.789,-0.347 -3.982,-0.167 0.408,-1.996 2.472,-3.895 5.674,-5.234 l 3.023,4.39 7.123,-4.157 -1.227,-2.104 -5.17,3.019 z" /></g><g
                 id="g82"
                 transform="translate(171.8887,422.8535)"><path
                   id="path80"
                   style="fill:#b2b2b2;fill-opacity:1;fill-rule:nonzero;stroke:none"
                   d="M 0,0 C 3.173,-0.585 6.241,-0.522 8.002,1.068 9.918,2.799 10.217,4.516 9.522,5.322 8.645,6.335 6.12,6.096 3.158,3.65 1.763,2.498 0.7,1.252 0,0 m 4.672,-8.744 c 1.799,-0.202 3.967,0.09 6.412,1.114 2.229,0.937 3.033,2.475 2.822,3.004 C 13.736,-4.2 12.151,-3.729 8.562,-5.093 6.468,-5.89 5.236,-7.258 4.672,-8.744 m 4.7,-7.772 c 0.921,-0.141 1.961,-0.109 3.113,0.137 3.863,0.828 5.145,2.285 5.282,2.938 0.033,0.158 0.018,0.275 -0.173,0.412 -0.575,0.417 -2.525,0.708 -5.791,-1.171 -1.145,-0.663 -1.97,-1.45 -2.431,-2.316 m 6.24,-10.593 -0.884,0.321 c -4.924,1.787 -7.913,4.726 -8.206,8.069 -0.014,0.188 -0.023,0.375 -0.02,0.56 -2.23,1.075 -3.709,3.011 -4.306,5.037 -0.238,0.809 -0.359,1.678 -0.337,2.562 -1.921,0.717 -3.372,1.937 -4.226,3.348 -0.852,1.409 -1.296,3.326 -0.874,5.468 -2.727,0.753 -5.137,1.747 -6.524,2.372 L -12.807,-7.519 -1.86,-10.75 -2.549,-13.084 -16,-9.114 -11.11,3.994 -9.896,3.382 C -8.316,2.586 -5.486,1.386 -2.467,0.567 -1.692,2.192 -0.39,3.881 1.607,5.53 6.024,9.176 9.69,8.854 11.366,6.915 12.788,5.264 12.854,2.167 9.634,-0.737 7.073,-3.055 2.99,-3.064 -0.87,-2.304 c -0.254,-1.309 -0.07,-2.559 0.587,-3.647 0.533,-0.882 1.408,-1.652 2.569,-2.167 0.73,2.168 2.433,4.17 5.409,5.303 6.532,2.479 8.136,-0.065 8.473,-0.907 0.848,-2.119 -0.971,-4.824 -4.14,-6.153 -2.894,-1.216 -5.506,-1.543 -7.722,-1.272 0.028,-0.444 0.105,-0.875 0.226,-1.286 0.384,-1.293 1.24,-2.492 2.53,-3.267 0.65,1.4 1.851,2.647 3.526,3.609 4.056,2.334 7.02,2.064 8.438,1.03 0.942,-0.685 1.364,-1.761 1.126,-2.884 -0.458,-2.153 -3.131,-3.953 -7.156,-4.816 -1.457,-0.31 -2.788,-0.346 -3.982,-0.165 0.407,-1.997 2.472,-3.896 5.674,-5.232 l 3.025,4.387 7.121,-4.154 -1.227,-2.106 -5.17,3.018 z" /></g><g
                 id="g86"
                 transform="translate(223.2124,358.0078)"><path
                   id="path84"
                   style="fill:#b2b2b2;fill-opacity:1;fill-rule:nonzero;stroke:none"
                   d="M 0,0 C 3.172,-0.585 6.24,-0.521 8.002,1.069 9.917,2.798 10.216,4.516 9.522,5.323 8.644,6.336 6.117,6.095 3.158,3.652 1.761,2.498 0.699,1.252 0,0 m 4.671,-8.747 c 1.798,-0.2 3.967,0.091 6.414,1.119 2.227,0.935 3.029,2.476 2.819,3.004 C 13.735,-4.2 12.149,-3.731 8.56,-5.092 6.469,-5.891 5.236,-7.257 4.671,-8.747 m 4.7,-7.769 c 0.92,-0.142 1.961,-0.111 3.113,0.137 3.863,0.828 5.146,2.285 5.283,2.938 0.033,0.155 0.016,0.274 -0.173,0.411 -0.576,0.419 -2.526,0.71 -5.793,-1.173 -1.144,-0.661 -1.968,-1.451 -2.43,-2.313 m 6.24,-10.594 -0.885,0.321 c -4.921,1.785 -7.912,4.727 -8.205,8.07 -0.015,0.188 -0.021,0.371 -0.021,0.559 -2.229,1.076 -3.707,3.009 -4.304,5.038 -0.238,0.81 -0.36,1.677 -0.339,2.564 -1.919,0.715 -3.371,1.933 -4.225,3.349 -0.853,1.407 -1.295,3.324 -0.874,5.466 -2.727,0.753 -5.137,1.747 -6.525,2.37 l -3.04,-8.145 10.946,-3.233 -0.69,-2.333 -13.451,3.97 4.891,13.107 1.215,-0.612 c 1.579,-0.794 4.408,-1.996 7.428,-2.816 0.775,1.626 2.077,3.314 4.074,4.964 4.415,3.648 8.083,3.324 9.759,1.385 C 12.787,5.265 12.852,2.168 9.634,-0.738 7.071,-3.054 2.988,-3.063 -0.872,-2.305 -1.125,-3.61 -0.941,-4.861 -0.284,-5.949 0.248,-6.83 1.124,-7.6 2.285,-8.117 c 0.73,2.168 2.434,4.17 5.409,5.3 6.532,2.483 8.136,-0.064 8.472,-0.903 0.849,-2.12 -0.972,-4.824 -4.14,-6.155 -2.892,-1.214 -5.505,-1.545 -7.719,-1.272 0.027,-0.443 0.103,-0.874 0.223,-1.286 0.385,-1.293 1.241,-2.492 2.53,-3.268 0.651,1.399 1.854,2.645 3.527,3.61 4.056,2.332 7.02,2.064 8.438,1.032 0.942,-0.685 1.363,-1.764 1.126,-2.888 -0.458,-2.152 -3.131,-3.954 -7.157,-4.814 -1.456,-0.312 -2.787,-0.347 -3.982,-0.169 0.408,-1.993 2.472,-3.893 5.675,-5.232 l 3.024,4.391 7.122,-4.157 -1.227,-2.106 -5.17,3.017 z" /></g><g
                 id="g90"
                 transform="translate(183.1895,279.7861)"><path
                   id="path88"
                   style="fill:#b2b2b2;fill-opacity:1;fill-rule:nonzero;stroke:none"
                   d="M 0,0 C 3.173,-0.584 6.241,-0.524 8.002,1.066 9.916,2.798 10.216,4.515 9.522,5.319 8.644,6.332 6.118,6.092 3.158,3.649 1.762,2.496 0.699,1.249 0,0 m 4.671,-8.745 c 1.8,-0.202 3.968,0.089 6.413,1.113 2.228,0.937 3.032,2.477 2.821,3.006 C 13.734,-4.2 12.151,-3.731 8.562,-5.095 6.468,-5.89 5.235,-7.26 4.671,-8.745 m 4.702,-7.774 c 0.919,-0.139 1.959,-0.108 3.11,0.139 3.865,0.83 5.147,2.284 5.284,2.94 0.033,0.154 0.016,0.272 -0.173,0.412 -0.576,0.413 -2.525,0.707 -5.792,-1.177 -1.145,-0.661 -1.969,-1.446 -2.429,-2.314 m 6.239,-10.593 -0.885,0.322 c -4.922,1.788 -7.911,4.726 -8.205,8.07 -0.015,0.188 -0.024,0.372 -0.022,0.559 -2.229,1.075 -3.707,3.008 -4.306,5.038 -0.236,0.809 -0.357,1.677 -0.336,2.561 -1.92,0.718 -3.371,1.936 -4.227,3.351 -0.85,1.407 -1.294,3.323 -0.87,5.466 -2.731,0.752 -5.14,1.746 -6.527,2.372 l -3.04,-8.147 10.945,-3.232 -0.69,-2.335 -13.45,3.97 4.891,13.107 1.214,-0.61 c 1.58,-0.797 4.41,-1.997 7.428,-2.814 0.776,1.625 2.077,3.312 4.075,4.962 4.417,3.646 8.082,3.326 9.757,1.385 C 12.788,5.264 12.853,2.165 9.633,-0.741 7.072,-3.056 2.99,-3.065 -0.872,-2.305 c -0.252,-1.308 -0.069,-2.56 0.588,-3.647 0.533,-0.881 1.409,-1.651 2.569,-2.168 0.731,2.172 2.434,4.171 5.41,5.303 6.532,2.481 8.134,-0.065 8.472,-0.906 0.849,-2.121 -0.971,-4.823 -4.14,-6.157 -2.894,-1.211 -5.506,-1.539 -7.72,-1.267 0.027,-0.446 0.103,-0.876 0.224,-1.289 0.383,-1.292 1.241,-2.49 2.531,-3.267 0.649,1.401 1.85,2.648 3.525,3.611 4.057,2.335 7.02,2.064 8.439,1.03 0.942,-0.685 1.363,-1.761 1.125,-2.884 -0.458,-2.154 -3.131,-3.953 -7.156,-4.818 -1.457,-0.309 -2.787,-0.345 -3.983,-0.166 0.408,-1.995 2.473,-3.894 5.676,-5.231 l 3.023,4.389 7.123,-4.156 -1.227,-2.108 -5.171,3.022 z" /></g><g
                 id="g94"
                 transform="translate(625.2993,265.8926)"><path
                   id="path92"
                   style="fill:#b2b2b2;fill-opacity:1;fill-rule:nonzero;stroke:none"
                   d="m 0,0 c -1.547,2.146 -2.586,-0.075 -5.607,-0.862 -2.563,-0.668 -2.789,3.86 -5.438,3.86 -2.648,0 -2.648,-3.877 -5.299,-3.877 -2.646,0 -4.201,3.025 -5.744,0.879 l 9.104,-13.117 v -13.424 c 0,-1.071 0.869,-1.938 1.939,-1.938 1.07,0 1.94,0.867 1.94,1.938 v 13.424 L 0,0" /></g><g
                 id="g98"
                 transform="translate(105.7129,370.625)"><path
                   id="path96"
                   style="fill:#b2b2b2;fill-opacity:1;fill-rule:nonzero;stroke:none"
                   d="m 0,0 -59.242,69.375 -1.316,-1.123 59.243,-69.377 -11.6,1.23 -0.181,-1.719 14.665,-1.553 0.761,14.726 -1.728,0.088 z" /></g><g
                 id="g102"
                 transform="translate(199.8394,348.1157)"><path
                   id="path100"
                   style="fill:#b2b2b2;fill-opacity:1;fill-rule:nonzero;stroke:none"
                   d="M 0,0 H -60.83 V -1.729 H 0 v -8.434 H 1.516 V 8.432 L 0,8.432 Z" /></g><g
                 id="g106"
                 transform="translate(162.9165,387.8105)"><path
                   id="path104"
                   style="fill:#b2b2b2;fill-opacity:1;fill-rule:nonzero;stroke:none"
                   d="M 0,0 7.06,7.059 6.578,-4.756 8.306,-4.827 8.917,10.139 -6.05,9.527 -5.978,7.801 5.837,8.284 -30.86,-28.415 l 1.223,-1.223 z" /></g><g
                 id="g110"
                 transform="translate(173.8936,304.187)"><path
                   id="path108"
                   style="fill:#b2b2b2;fill-opacity:1;fill-rule:nonzero;stroke:none"
                   d="m 0,0 0.212,-11.561 -35.062,35.059 -1.222,-1.222 35.061,-35.065 -11.564,0.212 -0.031,-1.727 14.602,-0.267 -0.267,14.603 z" /></g><g
                 id="g114"
                 transform="translate(359.4687,500.1758)"><path
                   id="path112"
                   style="fill:#b2b2b2;fill-opacity:1;fill-rule:nonzero;stroke:none"
                   d="m 0,0 0.121,-1.725 11.577,0.822 -128.448,-141.638 1.282,-1.161 128.449,141.635 0.311,-11.602 1.728,0.047 -0.391,14.657 z" /></g><g
                 id="g118"
                 transform="translate(603.0142,278.4893)"><path
                   id="path116"
                   style="fill:#b2b2b2;fill-opacity:1;fill-rule:nonzero;stroke:none"
                   d="m 0,0 -201.824,210.147 -1.248,-1.199 201.824,-210.146 -11.238,0.084 -0.012,-1.727 14.131,-0.107 0.463,14.125 -1.727,0.056 z" /></g><g
                 id="g122"
                 transform="translate(419.7544,517.3633)"><path
                   id="path120"
                   style="fill:#b2b2b2;fill-opacity:1;fill-rule:nonzero;stroke:none"
                   d="m 0,0 19.004,4.108 38.01,8.219 104.041,22.493 -6.209,-9.564 1.453,-0.941 7.824,12.053 -12.105,7.745 -0.934,-1.455 9.607,-6.147 L 75.656,18.126 56.65,14.018 18.639,5.8 -0.365,1.689 -19.371,-2.419 -19.008,-4.11 Z" /></g><g
                 id="g126"
                 transform="translate(598.7993,618.5327)"><path
                   id="path124"
                   style="fill:#b2b2b2;fill-opacity:1;fill-rule:nonzero;stroke:none"
                   d="m 0,0 1.293,-1.145 8.002,9.05 v -54.122 h 1.73 V 7.905 L 19.027,-1.145 20.322,0 10.162,11.494 Z" /></g><g
                 id="g130"
                 transform="translate(589.9282,106.3037)"><path
                   id="path128"
                   style="fill:#b2b2b2;fill-opacity:1;fill-rule:nonzero;stroke:none"
                   d="m 0,0 -11.838,-2.411 32.574,43.225 -1.381,1.038 -32.574,-43.223 -0.939,12.042 -1.727,-0.134 1.199,-15.295 15.032,3.064 z" /></g><g
                 id="g134"
                 transform="translate(641.4614,103.5186)"><path
                   id="path132"
                   style="fill:#b2b2b2;fill-opacity:1;fill-rule:nonzero;stroke:none"
                   d="m 0,0 11.455,-3.835 -27.059,46.871 1.497,0.865 27.06,-46.873 2.406,11.84 L 17.053,8.525 14,-6.51 -0.549,-1.636 Z" /></g><g
                 id="g138"
                 transform="translate(639.5063,667.9282)"><path
                   id="path136"
                   style="fill:#b2b2b2;fill-opacity:1;fill-rule:nonzero;stroke:none"
                   d="m 0,0 16.713,18.232 6.217,-5.697 1.023,1.117 -13.707,12.563 -1.023,-1.117 6.215,-5.697 -27.596,-30.107 1.275,-1.169 z" /></g><g
                 id="g142"
                 transform="translate(674.0747,601.0464)"><path
                   id="path140"
                   style="fill:#b2b2b2;fill-opacity:1;fill-rule:nonzero;stroke:none"
                   d="m 0,0 -43.082,-42.238 -5.904,6.021 -1.08,-1.061 13.013,-13.277 1.084,1.06 -5.904,6.022 43.086,42.239 z" /></g><g
                 id="g146"
                 transform="translate(622.1606,209.9971)"><path
                   id="path144"
                   style="fill:#b2b2b2;fill-opacity:1;fill-rule:nonzero;stroke:none"
                   d="m 0,0 -8.012,-8.72 v 31.036 h -1.73 V -8.72 l -8.012,8.72 -1.275,-1.169 10.152,-11.05 10.152,11.05 z" /></g></g></g></g></g></g></g></svg>