<svg id="Layer_1" data-name="Layer 1" xmlns="http://www.w3.org/2000/svg" viewBox="0 0 348.41 256.07"><defs><style>.cls-1{fill:#626161;}</style></defs><title>Icon_Zip</title><path class="cls-1" d="M342.09,172.47l-6.93,6.93,32.09,32.09H301.5V90.93L233.31,27.87H37.91V283.93H301.5V221.29h66.37l-33.82,33.83L341,262l45.34-45.34ZM72.72,274.13h-25V38.49h25ZM235.48,43.22l54.77,50.66H235.48ZM107.54,274.13h-25V38.49h25Zm184.15,0H117.34V38.46l108.34-.74v66h66V211.49H257.52v9.8h34.17Z" transform="translate(-37.91 -27.86)"/><path class="cls-1" d="M161.84,232.45l22.65-28v-4.77h-28.9v4.77H178.1c-1.32,1.35-2.71,2.95-4.18,4.78l-20.67,25.85V240h31.9v-4.76H159.39Z" transform="translate(-37.91 -27.86)"/><rect class="cls-1" x="153.9" y="171.83" width="5.34" height="40.35"/><path class="cls-1" d="M232.9,202a12.25,12.25,0,0,0-5-1.88,36.32,36.32,0,0,0-6.14-.39H206.56V240h5.34v-16.4h10.35q8.56,0,11.84-3.57a13.15,13.15,0,0,0,2-14.21A10,10,0,0,0,232.9,202Zm-3.22,15q-2.18,1.92-7.35,1.92H211.9V204.46h10.32a22.87,22.87,0,0,1,5,.35,6,6,0,0,1,3.38,2.38,7.32,7.32,0,0,1,1.28,4.34A6.87,6.87,0,0,1,229.68,217Z" transform="translate(-37.91 -27.86)"/></svg>