<svg id="Layer_1" data-name="Layer 1" xmlns="http://www.w3.org/2000/svg" viewBox="0 0 77.45 78.31"><defs><style>.cls-1{fill:#666;}.cls-2{fill:none;stroke:#666;stroke-miterlimit:10;stroke-width:4.25px;}</style></defs><title>BMA_Icon_Settings</title><path class="cls-1" d="M53.94,15.65v9.62a25.21,25.21,0,0,1,7.67,2.44L67.25,20l6.49,4.68-5.63,7.75a25.5,25.5,0,0,1,4.71,6.42l9.16-3,2.5,7.59-9.15,3a24,24,0,0,1,0,8l9.13,3L82.06,65l-9.12-3a25.76,25.76,0,0,1-4.71,6.55l5.62,7.74L67.4,81.09l-5.64-7.76a25.23,25.23,0,0,1-7.66,2.49v9.6l-8,0V75.83a25.67,25.67,0,0,1-7.63-2.47l-5.61,7.72-6.49-4.67L32,68.67a25.79,25.79,0,0,1-4.71-6.51l-9.21,3-2.49-7.61,9.24-3a23.46,23.46,0,0,1,0-8l-9.27-3L18,36l9.27,3a25.7,25.7,0,0,1,4.66-6.46l-5.72-7.84,6.46-4.72,5.73,7.85a25.42,25.42,0,0,1,7.54-2.48V15.68l8,0m0-4.25h0l-8,0a4.25,4.25,0,0,0-4.22,4.25v6.25c-.63.18-1.25.38-1.87.61L36.1,17.43a4.21,4.21,0,0,0-2.77-1.69,4.89,4.89,0,0,0-.66-.05,4.2,4.2,0,0,0-2.5.82l-6.46,4.72a4.24,4.24,0,0,0-.93,5.93l3.72,5.1c-.4.53-.79,1.06-1.16,1.61l-6-1.94a4.11,4.11,0,0,0-1.3-.21,4.27,4.27,0,0,0-1.94.47A4.21,4.21,0,0,0,14,34.66L11.5,42.28a4.26,4.26,0,0,0,2.74,5.35l6,1.93c0,.34,0,.67,0,1s0,.67,0,1l-6,2a4.24,4.24,0,0,0-2.71,5.36L14,66.49a4.25,4.25,0,0,0,4,2.93,4.33,4.33,0,0,0,1.32-.21l6-1.95c.38.57.79,1.12,1.2,1.66l-3.62,5a4.24,4.24,0,0,0,.95,5.94l6.5,4.68a4.24,4.24,0,0,0,5.91-1l3.62-5c.64.23,1.29.44,1.94.62v6.23A4.23,4.23,0,0,0,46.1,89.7h0l8,0a4.25,4.25,0,0,0,4.23-4.24V79.22c.67-.19,1.33-.4,2-.64l3.63,5a4.23,4.23,0,0,0,2.78,1.7,3.67,3.67,0,0,0,.66,0,4.26,4.26,0,0,0,2.51-.82l6.45-4.73a4.25,4.25,0,0,0,.93-5.92l-3.63-5c.42-.56.83-1.12,1.22-1.71l5.87,1.91a4.25,4.25,0,0,0,5.35-2.74l2.44-7.62a4.25,4.25,0,0,0-2.73-5.34l-5.89-1.91c0-.31,0-.61,0-.9s0-.79,0-1.19l5.89-1.91a4.25,4.25,0,0,0,2.72-5.36L86,34.5a4.23,4.23,0,0,0-5.34-2.71l-6,1.93c-.37-.55-.76-1.09-1.17-1.61l3.63-5A4.3,4.3,0,0,0,77.94,24a4.25,4.25,0,0,0-1.72-2.77l-6.49-4.67a4.24,4.24,0,0,0-5.91.95l-3.65,5q-1-.36-2-.63v-6.2a4.25,4.25,0,0,0-4.25-4.25Z" transform="translate(-11.3 -11.4)"/><circle class="cls-2" cx="38.79" cy="39.16" r="7.66"/></svg>