<?xml version="1.0" encoding="utf-8"?>
<!-- Generator: Adobe Illustrator 23.0.1, SVG Export Plug-In . SVG Version: 6.00 Build 0)  -->
<svg version="1.1" id="Layer_1" xmlns="http://www.w3.org/2000/svg" xmlns:xlink="http://www.w3.org/1999/xlink" x="0px" y="0px"
	 viewBox="0 0 70 70" style="enable-background:new 0 0 70 70;" xml:space="preserve">
<style type="text/css">
	.st0{fill:#E9F419;}
	.st1{fill:#FF9900;}
	.st2{fill:#FF0066;}
	.st3{fill:#FF66FF;}
	.st4{fill:#00CCCC;}
	.st5{fill:#9966FF;}
	.st6{fill:#3399CC;}
	.st7{fill:#33CC00;}
	.st8{fill:#B3B3B3;}
</style>
<path class="st0" d="M18.53,20.56H2.06C0.92,20.56,0,19.64,0,18.51V2.06C0,0.92,0.92,0,2.06,0h16.47c1.14,0,2.06,0.92,2.06,2.06
	v16.45C20.59,19.64,19.67,20.56,18.53,20.56z"/>
<path class="st1" d="M43.24,20.56H26.76c-1.14,0-2.06-0.92-2.06-2.06V2.06c0-1.14,0.92-2.06,2.06-2.06h16.47
	c1.14,0,2.06,0.92,2.06,2.06v16.45C45.29,19.64,44.37,20.56,43.24,20.56z"/>
<path class="st2" d="M67.94,20.56H51.47c-1.14,0-2.06-0.92-2.06-2.06V2.06c0-1.14,0.92-2.06,2.06-2.06h16.47
	C69.08,0,70,0.92,70,2.06v16.45C70,19.64,69.08,20.56,67.94,20.56z"/>
<path class="st3" d="M18.53,45.27H2.06C0.92,45.27,0,44.35,0,43.21V26.76c0-1.14,0.92-2.06,2.06-2.06h16.47
	c1.14,0,2.06,0.92,2.06,2.06v16.45C20.59,44.35,19.67,45.27,18.53,45.27z"/>
<g>
	<path class="st4" d="M26.76,44.76c-0.85,0-1.54-0.69-1.54-1.54V26.76c0-0.85,0.69-1.54,1.54-1.54h16.47c0.85,0,1.54,0.69,1.54,1.54
		v16.45c0,0.85-0.69,1.54-1.54,1.54H26.76z"/>
	<g>
		<path class="st4" d="M43.24,25.74c0.57,0,1.03,0.46,1.03,1.03v16.45c0,0.57-0.46,1.03-1.03,1.03H26.76
			c-0.57,0-1.03-0.46-1.03-1.03V26.76c0-0.57,0.46-1.03,1.03-1.03H43.24 M43.24,24.71H26.76c-1.14,0-2.06,0.92-2.06,2.06v16.45
			c0,1.14,0.92,2.06,2.06,2.06h16.47c1.14,0,2.06-0.92,2.06-2.06V26.76C45.29,25.63,44.37,24.71,43.24,24.71L43.24,24.71z"/>
	</g>
</g>
<g>
	<path class="st5" d="M51.47,44.76c-0.85,0-1.54-0.69-1.54-1.54V26.76c0-0.85,0.69-1.54,1.54-1.54h16.47c0.85,0,1.54,0.69,1.54,1.54
		v16.45c0,0.85-0.69,1.54-1.54,1.54H51.47z"/>
	<g>
		<path class="st5" d="M67.94,25.74c0.57,0,1.03,0.46,1.03,1.03v16.45c0,0.57-0.46,1.03-1.03,1.03H51.47
			c-0.57,0-1.03-0.46-1.03-1.03V26.76c0-0.57,0.46-1.03,1.03-1.03H67.94 M67.94,24.71H51.47c-1.14,0-2.06,0.92-2.06,2.06v16.45
			c0,1.14,0.92,2.06,2.06,2.06h16.47c1.14,0,2.06-0.92,2.06-2.06V26.76C70,25.63,69.08,24.71,67.94,24.71L67.94,24.71z"/>
	</g>
</g>
<path class="st6" d="M18.53,69.98H2.06C0.92,69.98,0,69.05,0,67.92V51.47c0-1.14,0.92-2.06,2.06-2.06h16.47
	c1.14,0,2.06,0.92,2.06,2.06v16.45C20.59,69.05,19.67,69.98,18.53,69.98z"/>
<g>
	<path class="st7" d="M26.76,69.46c-0.85,0-1.54-0.69-1.54-1.54V51.47c0-0.85,0.69-1.54,1.54-1.54h16.47c0.85,0,1.54,0.69,1.54,1.54
		v16.45c0,0.85-0.69,1.54-1.54,1.54H26.76z"/>
	<path class="st7" d="M43.24,50.44c0.57,0,1.03,0.46,1.03,1.03v16.45c0,0.57-0.46,1.03-1.03,1.03H26.76c-0.57,0-1.03-0.46-1.03-1.03
		V51.47c0-0.57,0.46-1.03,1.03-1.03H43.24 M43.24,49.41H26.76c-1.14,0-2.06,0.92-2.06,2.06v16.45c0,1.14,0.92,2.06,2.06,2.06h16.47
		c1.14,0,2.06-0.92,2.06-2.06V51.47C45.29,50.33,44.37,49.41,43.24,49.41L43.24,49.41z"/>
</g>
<path class="st8" d="M67.94,69.98H51.47c-1.14,0-2.06-0.92-2.06-2.06V51.47c0-1.14,0.92-2.06,2.06-2.06h16.47
	c1.14,0,2.06,0.92,2.06,2.06v16.45C70,69.05,69.08,69.98,67.94,69.98z"/>
</svg>
