<svg width="36" height="37" viewBox="0 0 36 37" fill="none" xmlns="http://www.w3.org/2000/svg">
<path fill-rule="evenodd" clip-rule="evenodd" d="M22.6054 23.801C23.8719 22.5515 25.9259 22.5508 27.1933 23.7994L35.049 31.539C36.3164 32.7876 36.3171 34.8128 35.0507 36.0624C33.7842 37.3119 31.7301 37.3126 30.4628 36.064L22.6071 28.3244C21.3397 27.0758 21.339 25.0506 22.6054 23.801Z" fill="#B7B7B7"/>
<path fill-rule="evenodd" clip-rule="evenodd" d="M14.876 3.65544C8.70786 3.65544 3.70757 8.58542 3.70757 14.6669C3.70757 20.7483 8.70786 25.6783 14.876 25.6783C21.0442 25.6783 26.0445 20.7483 26.0445 14.6669C26.0445 8.58542 21.0442 3.65544 14.876 3.65544ZM0 14.6669C0 6.56658 6.66023 0 14.876 0C23.0918 0 29.7521 6.56658 29.7521 14.6669C29.7521 22.7672 23.0918 29.3337 14.876 29.3337C6.66023 29.3337 0 22.7672 0 14.6669Z" fill="#B7B7B7"/>
</svg>
