<?xml version="1.0" encoding="utf-8"?>
<!-- Generator: Adobe Illustrator 23.0.1, SVG Export Plug-In . SVG Version: 6.00 Build 0)  -->
<svg version="1.1" id="Layer_1" xmlns="http://www.w3.org/2000/svg" xmlns:xlink="http://www.w3.org/1999/xlink" x="0px" y="0px"
	 viewBox="0 0 13.32 15.23" style="enable-background:new 0 0 13.32 15.23;" xml:space="preserve">
<style type="text/css">
	.st0{fill:#666666;stroke:#666666;stroke-width:1.44;stroke-miterlimit:10;}
	.st1{fill:#666666;}
</style>
<g>
	<line class="st0" x1="2.95" y1="3.05" x2="10.37" y2="5.58"/>
	<line class="st0" x1="4.93" y1="12.29" x2="10.37" y2="5.82"/>
	<g>
		<path class="st1" d="M2.95,5.5C1.6,5.5,0.5,4.4,0.5,3.05c0-1.35,1.1-2.44,2.45-2.44s2.44,1.1,2.44,2.44
			C5.39,4.4,4.29,5.5,2.95,5.5z"/>
		<path class="st1" d="M2.95,1.11c1.07,0,1.95,0.87,1.95,1.94S4.02,5,2.95,5S1,4.13,1,3.05S1.87,1.11,2.95,1.11 M2.95,0.11
			C1.32,0.11,0,1.43,0,3.05C0,4.68,1.32,6,2.95,6s2.95-1.32,2.95-2.94C5.89,1.43,4.57,0.11,2.95,0.11L2.95,0.11z"/>
	</g>
	<g>
		<path class="st1" d="M4.93,14.73c-1.35,0-2.44-1.1-2.44-2.44c0-1.35,1.1-2.45,2.44-2.45s2.45,1.1,2.45,2.45
			C7.38,13.64,6.28,14.73,4.93,14.73z"/>
		<path class="st1" d="M4.93,10.34c1.07,0,1.95,0.87,1.95,1.94s-0.87,1.94-1.95,1.94s-1.95-0.87-1.95-1.94S3.86,10.34,4.93,10.34
			 M4.93,9.34c-1.63,0-2.95,1.32-2.95,2.94c0,1.63,1.32,2.94,2.95,2.94s2.95-1.32,2.95-2.94C7.88,10.66,6.56,9.34,4.93,9.34
			L4.93,9.34z"/>
	</g>
	<g>
		<path class="st1" d="M10.37,8.02c-1.35,0-2.44-1.1-2.44-2.44c0-1.35,1.1-2.44,2.44-2.44c1.35,0,2.45,1.1,2.45,2.44
			C12.82,6.93,11.72,8.02,10.37,8.02z"/>
		<path class="st1" d="M10.37,3.63c1.07,0,1.95,0.87,1.95,1.94s-0.87,1.94-1.95,1.94S8.43,6.65,8.43,5.58S9.3,3.63,10.37,3.63
			 M10.37,2.63c-1.63,0-2.95,1.32-2.95,2.94c0,1.63,1.32,2.94,2.95,2.94s2.95-1.32,2.95-2.94C13.32,3.95,12,2.63,10.37,2.63
			L10.37,2.63z"/>
	</g>
</g>
<g>
	<line class="st0" x1="2.95" y1="2.94" x2="10.37" y2="5.47"/>
	<line class="st0" x1="4.93" y1="12.18" x2="10.37" y2="5.71"/>
	<g>
		<path class="st1" d="M2.95,5.39c-1.35,0-2.45-1.1-2.45-2.44C0.5,1.6,1.6,0.5,2.95,0.5s2.44,1.1,2.44,2.44
			C5.39,4.29,4.29,5.39,2.95,5.39z"/>
		<path class="st1" d="M2.95,1c1.07,0,1.95,0.87,1.95,1.94S4.02,4.89,2.95,4.89S1,4.02,1,2.94S1.87,1,2.95,1 M2.95,0
			C1.32,0,0,1.32,0,2.94c0,1.63,1.32,2.94,2.95,2.94s2.95-1.32,2.95-2.94C5.89,1.32,4.57,0,2.95,0L2.95,0z"/>
	</g>
	<g>
		<path class="st1" d="M4.93,14.62c-1.35,0-2.44-1.1-2.44-2.44c0-1.35,1.1-2.45,2.44-2.45s2.45,1.1,2.45,2.45
			C7.38,13.53,6.28,14.62,4.93,14.62z"/>
		<path class="st1" d="M4.93,10.24c1.07,0,1.95,0.87,1.95,1.94s-0.87,1.94-1.95,1.94s-1.95-0.87-1.95-1.94S3.86,10.24,4.93,10.24
			 M4.93,9.24c-1.63,0-2.95,1.32-2.95,2.94c0,1.63,1.32,2.94,2.95,2.94s2.95-1.32,2.95-2.94C7.88,10.55,6.56,9.24,4.93,9.24
			L4.93,9.24z"/>
	</g>
	<g>
		<path class="st1" d="M10.37,7.91c-1.35,0-2.44-1.1-2.44-2.44s1.1-2.44,2.44-2.44c1.35,0,2.45,1.1,2.45,2.44S11.72,7.91,10.37,7.91
			z"/>
		<path class="st1" d="M10.37,3.52c1.07,0,1.95,0.87,1.95,1.94s-0.87,1.94-1.95,1.94S8.43,6.54,8.43,5.47S9.3,3.52,10.37,3.52
			 M10.37,2.52c-1.63,0-2.95,1.32-2.95,2.94c0,1.63,1.32,2.94,2.95,2.94c1.63,0,2.95-1.32,2.95-2.94C13.32,3.84,12,2.52,10.37,2.52
			L10.37,2.52z"/>
	</g>
</g>
</svg>
