<svg id="Layer_1" data-name="Layer 1" xmlns="http://www.w3.org/2000/svg" viewBox="0 0 21.23 17"><defs><style>.cls-1{fill:#666;}</style></defs><path class="cls-1" d="M397.69,401l2.58,1.48v3l-2.58,1.49-2.57-1.49v-3l2.57-1.48m0-1.58-3.93,2.27v4.55l3.93,2.27,3.94-2.27v-4.55l-3.94-2.27Z" transform="translate(-389.39 -391.5)"/><path class="cls-1" d="M406.68,401l2.57,1.48v3l-2.57,1.49-2.57-1.49v-3l2.57-1.48m0-1.58-3.94,2.27v4.55l3.94,2.27,3.93-2.27v-4.55l-3.93-2.27Z" transform="translate(-389.39 -391.5)"/><path class="cls-1" d="M402.32,393.07l2.57,1.49v3L402.32,399l-2.57-1.48v-3l2.57-1.49m0-1.57-3.94,2.27v4.55l3.94,2.27,3.93-2.27v-4.55l-3.93-2.27Z" transform="translate(-389.39 -391.5)"/><path class="cls-1" d="M393.32,393.07l2.57,1.49v3L393.32,399l-2.57-1.48v-3l2.57-1.49m0-1.57-3.93,2.27v4.55l3.93,2.27,3.94-2.27v-4.55l-3.94-2.27Z" transform="translate(-389.39 -391.5)"/></svg>