<svg id="Layer_1" data-name="Layer 1" xmlns="http://www.w3.org/2000/svg" viewBox="0 0 20.88 16.8"><defs><style>.cls-1{fill:#545454;}</style></defs><path class="cls-1" d="M8.23,8.9l2.85,1.64v3.29L8.23,15.47,5.38,13.83V10.54L8.23,8.9m0-1.21L4.33,9.94v4.5l3.9,2.25,3.9-2.25V9.94L8.23,7.69Z"/><path class="cls-1" d="M17,8.9l2.85,1.64v3.29L17,15.47l-2.85-1.64V10.54L17,8.9m0-1.21-3.9,2.25v4.5L17,16.69l3.9-2.25V9.94L17,7.69Z"/><path class="cls-1" d="M12.66,1.21l2.85,1.65V6.14L12.66,7.79,9.81,6.14V2.86l2.85-1.65m0-1.21L8.76,2.25v4.5L12.66,9l3.9-2.25V2.25L12.66,0Z"/><path class="cls-1" d="M3.9,1.21,6.74,2.86V6.14L3.9,7.79,1.05,6.14V2.86L3.9,1.21M3.9,0,0,2.25v4.5L3.9,9,7.79,6.75V2.25L3.9,0Z"/></svg>