<svg id="Layer_1" data-name="Layer 1" xmlns="http://www.w3.org/2000/svg" viewBox="0 0 381.27 292.13"><defs><style>.cls-1{fill:#626161;}</style></defs><title>Icon_Close</title><path class="cls-1" d="M398.57,150.74c-.68-1.32-17.16-32.63-48.5-64.27A257.24,257.24,0,0,0,319,59.61l33.7-33.7a10,10,0,1,0-14.14-14.15L301.94,48.35c-29.45-17.58-60.85-26.69-92.87-26.69-50.24,0-99,22.41-141,64.81-31.34,31.64-47.82,62.95-48.5,64.27a10,10,0,0,0,.24,9.68c.77,1.31,19.2,32.44,51.45,63.94a286.22,286.22,0,0,0,29.45,25.22L66.4,283.89A10,10,0,1,0,80.54,298l37-37c29.89,18.47,60.88,28.05,91.51,28.05,46.83,0,94.49-22.38,137.81-64.7,32.25-31.5,50.68-62.63,51.45-63.94A10,10,0,0,0,398.57,150.74Zm-313,59.66a335,335,0,0,1-45.5-55.31c13.19-22.32,73-113.43,169-113.43,27.19,0,53.4,7.11,78.36,21.2L252.34,98A71.88,71.88,0,0,0,151.66,198.63L115,235.25A264.11,264.11,0,0,1,85.58,210.4Zm175.41-55a51.89,51.89,0,0,1-80.86,43.08l72-72A51.7,51.7,0,0,1,261,155.36Zm-103.84,0A51.89,51.89,0,0,1,238,112.27l-72,72A51.64,51.64,0,0,1,157.15,155.36Zm51.92,113.7c-28.63,0-54.69-9.58-76.93-22.63l33.66-33.66A71.88,71.88,0,0,0,266.48,112.09L304.7,73.87a238.32,238.32,0,0,1,30.77,26.28,289.12,289.12,0,0,1,42.59,54.94C363.6,177.3,298.41,269.06,209.07,269.06Z" transform="translate(-18.44 -8.83)"/></svg>